<svg width="801" height="801" viewBox="0 0 801 801" fill="none" xmlns="http://www.w3.org/2000/svg">
<path d="M800.825 250.43C800.825 240.873 800.825 231.316 800.777 221.769C800.728 213.719 800.631 205.669 800.417 197.628C799.94 180.099 798.91 162.424 795.799 145.089C792.639 127.491 787.476 111.109 779.329 95.1162C771.337 79.4147 760.886 65.0354 748.432 52.5811C735.968 40.1171 721.598 29.6753 705.887 21.6739C689.903 13.5363 673.531 8.37376 655.943 5.21401C638.609 2.09315 620.914 1.06258 603.385 0.586191C595.335 0.3723 587.294 0.275077 579.244 0.226465C569.687 0.168131 560.13 0.177854 550.583 0.177854H251.077C241.52 0.177854 231.963 0.177854 222.416 0.226465C214.366 0.275077 206.316 0.3723 198.276 0.586191C180.746 1.06258 163.052 2.09315 145.717 5.21401C128.129 8.37376 111.757 13.5363 95.7732 21.6739C80.062 29.6656 65.6924 40.1171 53.2284 52.5811C40.7644 65.0451 30.3227 79.4147 22.3212 95.1162C14.1836 111.109 9.0211 127.482 5.86135 145.089C2.75021 162.424 1.70993 180.099 1.24325 197.628C1.02936 205.678 0.932141 213.719 0.883529 221.769C0.825195 231.326 0.825195 240.883 0.825195 250.43V549.926C0.825195 559.483 0.825195 569.04 0.883529 578.587C0.932141 586.637 1.02936 594.677 1.24325 602.728C1.71965 620.257 2.75021 637.932 5.86135 655.267C9.0211 672.864 14.1836 689.246 22.3212 705.24C30.313 720.941 40.7644 735.32 53.2284 747.775C65.6924 760.239 80.062 770.68 95.7732 778.682C111.757 786.819 128.129 791.982 145.717 795.142C163.052 798.263 180.736 799.293 198.276 799.77C206.326 799.983 214.366 800.081 222.416 800.129C231.973 800.188 241.53 800.178 251.077 800.178H550.573C560.13 800.178 569.687 800.178 579.234 800.129C587.284 800.081 595.325 799.983 603.375 799.77C620.904 799.293 638.589 798.263 655.934 795.142C673.521 791.982 689.894 786.819 705.877 778.682C721.588 770.69 735.958 760.239 748.422 747.775C760.886 735.311 771.328 720.941 779.319 705.24C787.457 689.246 792.62 672.874 795.789 655.267C798.9 637.932 799.94 620.257 800.407 602.728C800.621 594.677 800.718 586.637 800.767 578.587C800.825 569.03 800.815 559.473 800.815 549.926V250.43H800.825Z" fill="#6150F4"/>
<path fill-rule="evenodd" clip-rule="evenodd" d="M388.028 695.5L400.827 702.921V702.853L413.625 695.5C578.913 599.922 681.639 421.972 681.639 231.087V205.354H656.111C570.744 205.354 486.942 182.889 413.625 140.41L400.827 132.99L388.028 140.41C314.711 182.889 230.909 205.354 145.542 205.354L120.014 205.559V231.087C120.014 421.904 222.74 599.854 388.028 695.5ZM204.407 407.334C185.647 359.41 174.392 308.3 171.683 255.799C252.013 251.85 330.504 229.998 400.827 191.807C471.149 229.998 549.64 251.85 629.97 255.799C627.261 308.282 616.004 359.395 597.241 407.33L503.417 313.664L400.826 416.118L298.236 313.664L204.407 407.334ZM227.067 456.878L298.236 385.824L400.826 488.278L503.417 385.824L574.584 456.877C534.792 532.45 475.276 597.471 400.827 643.627C326.375 597.432 266.859 532.435 227.067 456.878Z" fill="white"/>
</svg>
