<svg width="1390" height="2880" viewBox="0 0 1390 2880" fill="none" xmlns="http://www.w3.org/2000/svg">
<g clip-path="url(#clip0_2001_4487)">
<path fill-rule="evenodd" clip-rule="evenodd" d="M9.02211 121.423L13.212 123.853V123.831L17.4019 121.423C71.5137 90.125 105.144 31.8534 105.144 -30.6537V-39.0801H96.7867C68.8393 -39.0801 41.4045 -46.4365 17.4019 -60.3468L13.212 -62.7767L9.02211 -60.3468C-14.9806 -46.4365 -42.4154 -39.0801 -70.3627 -39.0801L-78.7202 -39.0133V-30.6537C-78.7202 31.8311 -45.0897 90.1027 9.02211 121.423ZM-51.0916 27.06C-57.2332 11.3669 -60.9179 -5.36945 -61.8047 -22.5617C-35.5065 -23.8546 -9.81007 -31.0104 13.212 -43.5163C36.234 -31.0104 61.9305 -23.8546 88.2287 -22.5617C87.3419 -5.37549 83.6566 11.3622 77.5141 27.0587L46.7978 -3.6132L13.2119 29.9365L-20.374 -3.6132L-51.0916 27.06ZM-43.6732 43.284L-20.374 20.0165L13.2119 53.5661L46.7978 20.0165L70.0966 43.2835C57.0695 68.0307 37.5853 89.3223 13.212 104.437C-11.1618 89.3098 -30.6461 68.0257 -43.6732 43.284Z" fill="#6150F4"/>
<path fill-rule="evenodd" clip-rule="evenodd" d="M9.02211 346.06L13.212 348.49V348.467L17.4019 346.06C71.5137 314.762 105.144 256.49 105.144 193.983V185.557H96.7867C68.8393 185.557 41.4045 178.2 17.4019 164.29L13.212 161.86L9.02211 164.29C-14.9806 178.2 -42.4154 185.557 -70.3627 185.557L-78.7202 185.623V193.983C-78.7202 256.468 -45.0897 314.739 9.02211 346.06ZM-51.0916 251.697C-57.2332 236.004 -60.9179 219.267 -61.8047 202.075C-35.5065 200.782 -9.81007 193.626 13.212 181.12C36.234 193.626 61.9305 200.782 88.2287 202.075C87.3419 219.261 83.6566 235.999 77.5141 251.695L46.7978 221.023L13.2119 254.573L-20.374 221.023L-51.0916 251.697ZM-43.6732 267.921L-20.374 244.653L13.2119 278.203L46.7978 244.653L70.0966 267.92C57.0695 292.667 37.5853 313.959 13.212 329.073C-11.1618 313.946 -30.6461 292.662 -43.6732 267.921Z" fill="#6150F4"/>
<path fill-rule="evenodd" clip-rule="evenodd" d="M9.02211 570.693L13.212 573.123V573.101L17.4019 570.693C71.5137 539.395 105.144 481.124 105.144 418.616V410.19H96.7867C68.8393 410.19 41.4045 402.834 17.4019 388.923L13.212 386.494L9.02211 388.923C-14.9806 402.834 -42.4154 410.19 -70.3627 410.19L-78.7202 410.257V418.616C-78.7202 481.101 -45.0897 539.373 9.02211 570.693ZM-51.0916 476.33C-57.2332 460.637 -60.9179 443.901 -61.8047 426.709C-35.5065 425.416 -9.81007 418.26 13.212 405.754C36.234 418.26 61.9305 425.416 88.2287 426.709C87.3419 443.895 83.6566 460.632 77.5141 476.329L46.7978 445.657L13.2119 479.207L-20.374 445.657L-51.0916 476.33ZM-43.6732 492.554L-20.374 469.287L13.2119 502.836L46.7978 469.287L70.0966 492.554C57.0695 517.301 37.5853 538.593 13.212 553.707C-11.1618 538.58 -30.6461 517.296 -43.6732 492.554Z" fill="#6150F4"/>
<path fill-rule="evenodd" clip-rule="evenodd" d="M9.02211 795.327L13.212 797.757V797.734L17.4019 795.327C71.5137 764.029 105.144 705.757 105.144 643.25V634.824H96.7867C68.8393 634.824 41.4045 627.467 17.4019 613.557L13.212 611.127L9.02211 613.557C-14.9806 627.467 -42.4154 634.824 -70.3627 634.824L-78.7202 634.89V643.25C-78.7202 705.735 -45.0897 764.006 9.02211 795.327ZM-51.0916 700.964C-57.2332 685.271 -60.9179 668.534 -61.8047 651.342C-35.5065 650.049 -9.81007 642.893 13.212 630.387C36.234 642.893 61.9305 650.049 88.2287 651.342C87.3419 668.528 83.6566 685.266 77.5141 700.962L46.7978 670.29L13.2119 703.84L-20.374 670.29L-51.0916 700.964ZM-43.6732 717.188L-20.374 693.92L13.2119 727.47L46.7978 693.92L70.0966 717.187C57.0695 741.934 37.5853 763.226 13.212 778.34C-11.1618 763.213 -30.6461 741.929 -43.6732 717.188Z" fill="#6150F4"/>
<path fill-rule="evenodd" clip-rule="evenodd" d="M9.02211 1019.96L13.212 1022.39V1022.37L17.4019 1019.96C71.5137 988.662 105.144 930.391 105.144 867.883V859.457H96.7867C68.8393 859.457 41.4045 852.101 17.4019 838.19L13.212 835.76L9.02211 838.19C-14.9806 852.101 -42.4154 859.457 -70.3627 859.457L-78.7202 859.524V867.883C-78.7202 930.368 -45.0897 988.64 9.02211 1019.96ZM-51.0916 925.597C-57.2332 909.904 -60.9179 893.168 -61.8047 875.975C-35.5065 874.683 -9.81007 867.527 13.212 855.021C36.234 867.527 61.9305 874.683 88.2287 875.975C87.3419 893.162 83.6566 909.899 77.5141 925.596L46.7978 894.924L13.2119 928.474L-20.374 894.924L-51.0916 925.597ZM-43.6732 941.821L-20.374 918.554L13.2119 952.103L46.7978 918.554L70.0966 941.821C57.0695 966.568 37.5853 987.859 13.212 1002.97C-11.1618 987.847 -30.6461 966.563 -43.6732 941.821Z" fill="#6150F4"/>
<path fill-rule="evenodd" clip-rule="evenodd" d="M9.02211 1244.59L13.212 1247.02V1247L17.4019 1244.59C71.5137 1213.3 105.144 1155.02 105.144 1092.52V1084.09H96.7867C68.8393 1084.09 41.4045 1076.73 17.4019 1062.82L13.212 1060.39L9.02211 1062.82C-14.9806 1076.73 -42.4154 1084.09 -70.3627 1084.09L-78.7202 1084.16V1092.52C-78.7202 1155 -45.0897 1213.27 9.02211 1244.59ZM-51.0916 1150.23C-57.2332 1134.54 -60.9179 1117.8 -61.8047 1100.61C-35.5065 1099.32 -9.81007 1092.16 13.212 1079.65C36.234 1092.16 61.9305 1099.32 88.2287 1100.61C87.3419 1117.8 83.6566 1134.53 77.5141 1150.23L46.7978 1119.56L13.2119 1153.11L-20.374 1119.56L-51.0916 1150.23ZM-43.6732 1166.45L-20.374 1143.19L13.2119 1176.74L46.7978 1143.19L70.0966 1166.45C57.0695 1191.2 37.5853 1212.49 13.212 1227.61C-11.1618 1212.48 -30.6461 1191.2 -43.6732 1166.45Z" fill="#6150F4"/>
<path fill-rule="evenodd" clip-rule="evenodd" d="M9.02211 1693.86L13.212 1696.29V1696.27L17.4019 1693.86C71.5137 1662.56 105.144 1604.29 105.144 1541.78V1533.36H96.7867C68.8393 1533.36 41.4045 1526 17.4019 1512.09L13.212 1509.66L9.02211 1512.09C-14.9806 1526 -42.4154 1533.36 -70.3627 1533.36L-78.7202 1533.42V1541.78C-78.7202 1604.27 -45.0897 1662.54 9.02211 1693.86ZM-51.0916 1599.5C-57.2332 1583.8 -60.9179 1567.07 -61.8047 1549.88C-35.5065 1548.58 -9.81007 1541.43 13.212 1528.92C36.234 1541.43 61.9305 1548.58 88.2287 1549.88C87.3419 1567.06 83.6566 1583.8 77.5141 1599.5L46.7978 1568.82L13.2119 1602.37L-20.374 1568.82L-51.0916 1599.5ZM-43.6732 1615.72L-20.374 1592.45L13.2119 1626L46.7978 1592.45L70.0966 1615.72C57.0695 1640.47 37.5853 1661.76 13.212 1676.87C-11.1618 1661.75 -30.6461 1640.46 -43.6732 1615.72Z" fill="#6150F4"/>
<path fill-rule="evenodd" clip-rule="evenodd" d="M9.02211 1469.23L13.212 1471.66V1471.63L17.4019 1469.23C71.5137 1437.93 105.144 1379.66 105.144 1317.15V1308.72H96.7867C68.8393 1308.72 41.4045 1301.37 17.4019 1287.46L13.212 1285.03L9.02211 1287.46C-14.9806 1301.37 -42.4154 1308.72 -70.3627 1308.72L-78.7202 1308.79V1317.15C-78.7202 1379.64 -45.0897 1437.91 9.02211 1469.23ZM-51.0916 1374.86C-57.2332 1359.17 -60.9179 1342.43 -61.8047 1325.24C-35.5065 1323.95 -9.81007 1316.79 13.212 1304.29C36.234 1316.79 61.9305 1323.95 88.2287 1325.24C87.3419 1342.43 83.6566 1359.17 77.5141 1374.86L46.7978 1344.19L13.2119 1377.74L-20.374 1344.19L-51.0916 1374.86ZM-43.6732 1391.09L-20.374 1367.82L13.2119 1401.37L46.7978 1367.82L70.0966 1391.09C57.0695 1415.83 37.5853 1437.13 13.212 1452.24C-11.1618 1437.11 -30.6461 1415.83 -43.6732 1391.09Z" fill="#6150F4"/>
<path fill-rule="evenodd" clip-rule="evenodd" d="M9.02211 1918.49L13.212 1920.92V1920.9L17.4019 1918.49C71.5137 1887.2 105.144 1828.93 105.144 1766.42V1757.99H96.7867C68.8393 1757.99 41.4045 1750.64 17.4019 1736.73L13.212 1734.3L9.02211 1736.73C-14.9806 1750.64 -42.4154 1757.99 -70.3627 1757.99L-78.7202 1758.06V1766.42C-78.7202 1828.9 -45.0897 1887.17 9.02211 1918.49ZM-51.0916 1824.13C-57.2332 1808.44 -60.9179 1791.7 -61.8047 1774.51C-35.5065 1773.22 -9.81007 1766.06 13.212 1753.56C36.234 1766.06 61.9305 1773.22 88.2287 1774.51C87.3419 1791.7 83.6566 1808.43 77.5141 1824.13L46.7978 1793.46L13.2119 1827.01L-20.374 1793.46L-51.0916 1824.13ZM-43.6732 1840.36L-20.374 1817.09L13.2119 1850.64L46.7978 1817.09L70.0966 1840.36C57.0695 1865.1 37.5853 1886.39 13.212 1901.51C-11.1618 1886.38 -30.6461 1865.1 -43.6732 1840.36Z" fill="#6150F4"/>
<path fill-rule="evenodd" clip-rule="evenodd" d="M9.02211 2143.13L13.212 2145.56V2145.54L17.4019 2143.13C71.5137 2111.83 105.144 2053.56 105.144 1991.05V1982.63H96.7867C68.8393 1982.63 41.4045 1975.27 17.4019 1961.36L13.212 1958.93L9.02211 1961.36C-14.9806 1975.27 -42.4154 1982.63 -70.3627 1982.63L-78.7202 1982.69V1991.05C-78.7202 2053.54 -45.0897 2111.81 9.02211 2143.13ZM-51.0916 2048.77C-57.2332 2033.07 -60.9179 2016.34 -61.8047 1999.14C-35.5065 1997.85 -9.81007 1990.7 13.212 1978.19C36.234 1990.7 61.9305 1997.85 88.2287 1999.14C87.3419 2016.33 83.6566 2033.07 77.5141 2048.77L46.7978 2018.09L13.2119 2051.64L-20.374 2018.09L-51.0916 2048.77ZM-43.6732 2064.99L-20.374 2041.72L13.2119 2075.27L46.7978 2041.72L70.0966 2064.99C57.0695 2089.74 37.5853 2111.03 13.212 2126.14C-11.1618 2111.02 -30.6461 2089.73 -43.6732 2064.99Z" fill="#6150F4"/>
<path fill-rule="evenodd" clip-rule="evenodd" d="M9.02211 2367.76L13.212 2370.19V2370.17L17.4019 2367.76C71.5137 2336.47 105.144 2278.19 105.144 2215.69V2207.26H96.7867C68.8393 2207.26 41.4045 2199.9 17.4019 2185.99L13.212 2183.56L9.02211 2185.99C-14.9806 2199.9 -42.4154 2207.26 -70.3627 2207.26L-78.7202 2207.33V2215.69C-78.7202 2278.17 -45.0897 2336.44 9.02211 2367.76ZM-51.0916 2273.4C-57.2332 2257.71 -60.9179 2240.97 -61.8047 2223.78C-35.5065 2222.49 -9.81007 2215.33 13.212 2202.82C36.234 2215.33 61.9305 2222.49 88.2287 2223.78C87.3419 2240.97 83.6566 2257.7 77.5141 2273.4L46.7978 2242.73L13.2119 2276.28L-20.374 2242.73L-51.0916 2273.4ZM-43.6732 2289.62L-20.374 2266.36L13.2119 2299.91L46.7978 2266.36L70.0966 2289.62C57.0695 2314.37 37.5853 2335.66 13.212 2350.78C-11.1618 2335.65 -30.6461 2314.37 -43.6732 2289.62Z" fill="#6150F4"/>
<path fill-rule="evenodd" clip-rule="evenodd" d="M9.02211 2592.4L13.212 2594.83V2594.81L17.4019 2592.4C71.5137 2561.1 105.144 2502.83 105.144 2440.32V2431.89H96.7867C68.8393 2431.89 41.4045 2424.54 17.4019 2410.63L13.212 2408.2L9.02211 2410.63C-14.9806 2424.54 -42.4154 2431.89 -70.3627 2431.89L-78.7202 2431.96V2440.32C-78.7202 2502.81 -45.0897 2561.08 9.02211 2592.4ZM-51.0916 2498.03C-57.2332 2482.34 -60.9179 2465.61 -61.8047 2448.41C-35.5065 2447.12 -9.81007 2439.96 13.212 2427.46C36.234 2439.96 61.9305 2447.12 88.2287 2448.41C87.3419 2465.6 83.6566 2482.34 77.5141 2498.03L46.7978 2467.36L13.2119 2500.91L-20.374 2467.36L-51.0916 2498.03ZM-43.6732 2514.26L-20.374 2490.99L13.2119 2524.54L46.7978 2490.99L70.0966 2514.26C57.0695 2539.01 37.5853 2560.3 13.212 2575.41C-11.1618 2560.28 -30.6461 2539 -43.6732 2514.26Z" fill="#6150F4"/>
<path fill-rule="evenodd" clip-rule="evenodd" d="M9.02211 2817.03L13.212 2819.46V2819.44L17.4019 2817.03C71.5137 2785.73 105.144 2727.46 105.144 2664.96V2656.53H96.7867C68.8393 2656.53 41.4045 2649.17 17.4019 2635.26L13.212 2632.83L9.02211 2635.26C-14.9806 2649.17 -42.4154 2656.53 -70.3627 2656.53L-78.7202 2656.6V2664.96C-78.7202 2727.44 -45.0897 2785.71 9.02211 2817.03ZM-51.0916 2722.67C-57.2332 2706.98 -60.9179 2690.24 -61.8047 2673.05C-35.5065 2671.75 -9.81007 2664.6 13.212 2652.09C36.234 2664.6 61.9305 2671.75 88.2287 2673.05C87.3419 2690.23 83.6566 2706.97 77.5141 2722.67L46.7978 2692L13.2119 2725.55L-20.374 2692L-51.0916 2722.67ZM-43.6732 2738.89L-20.374 2715.63L13.2119 2749.18L46.7978 2715.63L70.0966 2738.89C57.0695 2763.64 37.5853 2784.93 13.212 2800.05C-11.1618 2784.92 -30.6461 2763.63 -43.6732 2738.89Z" fill="#6150F4"/>
<path fill-rule="evenodd" clip-rule="evenodd" d="M9.02211 3041.67L13.212 3044.1V3044.07L17.4019 3041.67C71.5137 3010.37 105.144 2952.1 105.144 2889.59V2881.16H96.7867C68.8393 2881.16 41.4045 2873.81 17.4019 2859.9L13.212 2857.47L9.02211 2859.9C-14.9806 2873.81 -42.4154 2881.16 -70.3627 2881.16L-78.7202 2881.23V2889.59C-78.7202 2952.07 -45.0897 3010.35 9.02211 3041.67ZM-51.0916 2947.3C-57.2332 2931.61 -60.9179 2914.87 -61.8047 2897.68C-35.5065 2896.39 -9.81007 2889.23 13.212 2876.73C36.234 2889.23 61.9305 2896.39 88.2287 2897.68C87.3419 2914.87 83.6566 2931.61 77.5141 2947.3L46.7978 2916.63L13.2119 2950.18L-20.374 2916.63L-51.0916 2947.3ZM-43.6732 2963.53L-20.374 2940.26L13.2119 2973.81L46.7978 2940.26L70.0966 2963.53C57.0695 2988.27 37.5853 3009.57 13.212 3024.68C-11.1618 3009.55 -30.6461 2988.27 -43.6732 2963.53Z" fill="#6150F4"/>
<path fill-rule="evenodd" clip-rule="evenodd" d="M236.284 20.1032L240.474 22.533V22.5107L244.664 20.1032C298.776 -11.1949 332.406 -69.4666 332.406 -131.974V-140.4H324.049C296.102 -140.4 268.667 -147.756 244.664 -161.667L240.474 -164.097L236.284 -161.667C212.282 -147.756 184.847 -140.4 156.899 -140.4L148.542 -140.333V-131.974C148.542 -69.4888 182.172 -11.2172 236.284 20.1032ZM176.171 -74.26C170.029 -89.953 166.344 -106.689 165.458 -123.882C191.756 -125.175 217.452 -132.33 240.474 -144.836C263.496 -132.33 289.193 -125.175 315.491 -123.882C314.604 -106.695 310.919 -89.9578 304.776 -74.2612L274.06 -104.933L240.474 -71.3835L206.888 -104.933L176.171 -74.26ZM183.589 -58.036L206.888 -81.3035L240.474 -47.7538L274.06 -81.3035L297.359 -58.0365C284.332 -33.2893 264.848 -11.9976 240.474 3.11661C216.1 -12.0102 196.616 -33.2943 183.589 -58.036Z" fill="#6150F4"/>
<path fill-rule="evenodd" clip-rule="evenodd" d="M690.811 20.1032L695.001 22.533V22.5107L699.19 20.1032C753.302 -11.1949 786.933 -69.4666 786.933 -131.974V-140.4H778.575C750.628 -140.4 723.193 -147.756 699.19 -161.667L695.001 -164.097L690.811 -161.667C666.808 -147.756 639.373 -140.4 611.426 -140.4L603.068 -140.333V-131.974C603.068 -69.4888 636.699 -11.2172 690.811 20.1032ZM630.697 -74.26C624.555 -89.953 620.871 -106.689 619.984 -123.882C646.282 -125.175 671.979 -132.33 695.001 -144.836C718.023 -132.33 743.719 -125.175 770.017 -123.882C769.13 -106.695 765.445 -89.9578 759.303 -74.2612L728.586 -104.933L695 -71.3835L661.415 -104.933L630.697 -74.26ZM638.115 -58.036L661.415 -81.3035L695 -47.7538L728.586 -81.3035L751.885 -58.0365C738.858 -33.2893 719.374 -11.9976 695.001 3.11661C670.627 -12.0102 651.142 -33.2943 638.115 -58.036Z" fill="#6150F4"/>
<path fill-rule="evenodd" clip-rule="evenodd" d="M1145.34 20.1032L1149.53 22.533V22.5107L1153.72 20.1032C1207.83 -11.1949 1241.46 -69.4666 1241.46 -131.974V-140.4H1233.1C1205.15 -140.4 1177.72 -147.756 1153.72 -161.667L1149.53 -164.097L1145.34 -161.667C1121.33 -147.756 1093.9 -140.4 1065.95 -140.4L1057.59 -140.333V-131.974C1057.59 -69.4888 1091.22 -11.2172 1145.34 20.1032ZM1085.22 -74.26C1079.08 -89.953 1075.4 -106.689 1074.51 -123.882C1100.81 -125.175 1126.5 -132.33 1149.53 -144.836C1172.55 -132.33 1198.24 -125.175 1224.54 -123.882C1223.66 -106.695 1219.97 -89.9578 1213.83 -74.2612L1183.11 -104.933L1149.53 -71.3835L1115.94 -104.933L1085.22 -74.26ZM1092.64 -58.036L1115.94 -81.3035L1149.53 -47.7538L1183.11 -81.3035L1206.41 -58.0365C1193.38 -33.2893 1173.9 -11.9976 1149.53 3.11661C1125.15 -12.0102 1105.67 -33.2943 1092.64 -58.036Z" fill="#6150F4"/>
<path fill-rule="evenodd" clip-rule="evenodd" d="M236.284 244.74L240.474 247.17V247.147L244.664 244.74C298.776 213.442 332.406 155.17 332.406 92.6631V84.2366H324.049C296.102 84.2366 268.667 76.8802 244.664 62.9699L240.474 60.5401L236.284 62.9699C212.282 76.8802 184.847 84.2366 156.899 84.2366L148.542 84.3035V92.6631C148.542 155.148 182.172 213.419 236.284 244.74ZM176.171 150.377C170.029 134.684 166.344 117.947 165.458 100.755C191.756 99.4622 217.452 92.3064 240.474 79.8005C263.496 92.3064 289.193 99.4622 315.491 100.755C314.604 117.941 310.919 134.679 304.776 150.375L274.06 119.704L240.474 153.253L206.888 119.704L176.171 150.377ZM183.589 166.601L206.888 143.333L240.474 176.883L274.06 143.333L297.359 166.6C284.332 191.347 264.848 212.639 240.474 227.753C216.1 212.627 196.616 191.342 183.589 166.601Z" fill="#6150F4"/>
<path fill-rule="evenodd" clip-rule="evenodd" d="M1145.34 244.74L1149.53 247.17V247.147L1153.72 244.74C1207.83 213.442 1241.46 155.17 1241.46 92.6631V84.2366H1233.1C1205.15 84.2366 1177.72 76.8802 1153.72 62.9699L1149.53 60.5401L1145.34 62.9699C1121.33 76.8802 1093.9 84.2366 1065.95 84.2366L1057.59 84.3035V92.6631C1057.59 155.148 1091.22 213.419 1145.34 244.74ZM1085.22 150.377C1079.08 134.684 1075.4 117.947 1074.51 100.755C1100.81 99.4622 1126.5 92.3064 1149.53 79.8005C1172.55 92.3064 1198.24 99.4622 1224.54 100.755C1223.66 117.941 1219.97 134.679 1213.83 150.375L1183.11 119.704L1149.53 153.253L1115.94 119.704L1085.22 150.377ZM1092.64 166.601L1115.94 143.333L1149.53 176.883L1183.11 143.333L1206.41 166.6C1193.38 191.347 1173.9 212.639 1149.53 227.753C1125.15 212.627 1105.67 191.342 1092.64 166.601Z" fill="#6150F4"/>
<path fill-rule="evenodd" clip-rule="evenodd" d="M690.811 244.74L695.001 247.17V247.147L699.19 244.74C753.302 213.442 786.933 155.17 786.933 92.6631V84.2366H778.575C750.628 84.2366 723.193 76.8802 699.19 62.9699L695.001 60.5401L690.811 62.9699C666.808 76.8802 639.373 84.2366 611.426 84.2366L603.068 84.3035V92.6631C603.068 155.148 636.699 213.419 690.811 244.74ZM630.697 150.377C624.555 134.684 620.871 117.947 619.984 100.755C646.282 99.4622 671.979 92.3064 695.001 79.8005C718.023 92.3064 743.719 99.4622 770.017 100.755C769.13 117.941 765.445 134.679 759.303 150.375L728.586 119.704L695 153.253L661.415 119.704L630.697 150.377ZM638.115 166.601L661.415 143.333L695 176.883L728.586 143.333L751.885 166.6C738.858 191.347 719.374 212.639 695.001 227.753C670.627 212.627 651.142 191.342 638.115 166.601Z" fill="#6150F4"/>
<path fill-rule="evenodd" clip-rule="evenodd" d="M1145.34 469.373L1149.53 471.803V471.781L1153.72 469.373C1207.83 438.075 1241.46 379.804 1241.46 317.297V308.87H1233.1C1205.15 308.87 1177.72 301.514 1153.72 287.603L1149.53 285.174L1145.34 287.603C1121.33 301.514 1093.9 308.87 1065.95 308.87L1057.59 308.937V317.297C1057.59 379.781 1091.22 438.053 1145.34 469.373ZM1085.22 375.01C1079.08 359.317 1075.4 342.581 1074.51 325.389C1100.81 324.096 1126.5 316.94 1149.53 304.434C1172.55 316.94 1198.24 324.096 1224.54 325.389C1223.66 342.575 1219.97 359.312 1213.83 375.009L1183.11 344.337L1149.53 377.887L1115.94 344.337L1085.22 375.01ZM1092.64 391.234L1115.94 367.967L1149.53 401.516L1183.11 367.967L1206.41 391.234C1193.38 415.981 1173.9 437.273 1149.53 452.387C1125.15 437.26 1105.67 415.976 1092.64 391.234Z" fill="#6150F4"/>
<path fill-rule="evenodd" clip-rule="evenodd" d="M236.284 469.373L240.474 471.803V471.781L244.664 469.373C298.776 438.075 332.406 379.804 332.406 317.297V308.87H324.049C296.102 308.87 268.667 301.514 244.664 287.603L240.474 285.174L236.284 287.603C212.282 301.514 184.847 308.87 156.899 308.87L148.542 308.937V317.297C148.542 379.781 182.172 438.053 236.284 469.373ZM176.171 375.01C170.029 359.317 166.344 342.581 165.458 325.389C191.756 324.096 217.452 316.94 240.474 304.434C263.496 316.94 289.193 324.096 315.491 325.389C314.604 342.575 310.919 359.312 304.776 375.009L274.06 344.337L240.474 377.887L206.888 344.337L176.171 375.01ZM183.589 391.234L206.888 367.967L240.474 401.516L274.06 367.967L297.359 391.234C284.332 415.981 264.848 437.273 240.474 452.387C216.1 437.26 196.616 415.976 183.589 391.234Z" fill="#6150F4"/>
<path fill-rule="evenodd" clip-rule="evenodd" d="M690.811 469.373L695.001 471.803V471.781L699.19 469.373C753.302 438.075 786.933 379.804 786.933 317.297V308.87H778.575C750.628 308.87 723.193 301.514 699.19 287.603L695.001 285.174L690.811 287.603C666.808 301.514 639.373 308.87 611.426 308.87L603.068 308.937V317.297C603.068 379.781 636.699 438.053 690.811 469.373ZM630.697 375.01C624.555 359.317 620.871 342.581 619.984 325.389C646.282 324.096 671.979 316.94 695.001 304.434C718.023 316.94 743.719 324.096 770.017 325.389C769.13 342.575 765.445 359.312 759.303 375.009L728.586 344.337L695 377.887L661.415 344.337L630.697 375.01ZM638.115 391.234L661.415 367.967L695 401.516L728.586 367.967L751.885 391.234C738.858 415.981 719.374 437.273 695.001 452.387C670.627 437.26 651.142 415.976 638.115 391.234Z" fill="#6150F4"/>
<path fill-rule="evenodd" clip-rule="evenodd" d="M1145.34 694.007L1149.53 696.437V696.414L1153.72 694.007C1207.83 662.709 1241.46 604.437 1241.46 541.93V533.504H1233.1C1205.15 533.504 1177.72 526.147 1153.72 512.237L1149.53 509.807L1145.34 512.237C1121.33 526.147 1093.9 533.504 1065.95 533.504L1057.59 533.57V541.93C1057.59 604.415 1091.22 662.686 1145.34 694.007ZM1085.22 599.644C1079.08 583.951 1075.4 567.214 1074.51 550.022C1100.81 548.729 1126.5 541.573 1149.53 529.067C1172.55 541.573 1198.24 548.729 1224.54 550.022C1223.66 567.208 1219.97 583.946 1213.83 599.642L1183.11 568.971L1149.53 602.52L1115.94 568.971L1085.22 599.644ZM1092.64 615.868L1115.94 592.6L1149.53 626.15L1183.11 592.6L1206.41 615.867C1193.38 640.614 1173.9 661.906 1149.53 677.02C1125.15 661.894 1105.67 640.609 1092.64 615.868Z" fill="#6150F4"/>
<path fill-rule="evenodd" clip-rule="evenodd" d="M236.284 694.007L240.474 696.437V696.414L244.664 694.007C298.776 662.709 332.406 604.437 332.406 541.93V533.504H324.049C296.102 533.504 268.667 526.147 244.664 512.237L240.474 509.807L236.284 512.237C212.282 526.147 184.847 533.504 156.899 533.504L148.542 533.57V541.93C148.542 604.415 182.172 662.686 236.284 694.007ZM176.171 599.644C170.029 583.951 166.344 567.214 165.458 550.022C191.756 548.729 217.452 541.573 240.474 529.067C263.496 541.573 289.193 548.729 315.491 550.022C314.604 567.208 310.919 583.946 304.776 599.642L274.06 568.971L240.474 602.52L206.888 568.971L176.171 599.644ZM183.589 615.868L206.888 592.6L240.474 626.15L274.06 592.6L297.359 615.867C284.332 640.614 264.848 661.906 240.474 677.02C216.1 661.894 196.616 640.609 183.589 615.868Z" fill="#6150F4"/>
<path fill-rule="evenodd" clip-rule="evenodd" d="M1145.34 918.64L1149.53 921.07V921.048L1153.72 918.64C1207.83 887.342 1241.46 829.071 1241.46 766.564V758.137H1233.1C1205.15 758.137 1177.72 750.781 1153.72 736.87L1149.53 734.441L1145.34 736.87C1121.33 750.781 1093.9 758.137 1065.95 758.137L1057.59 758.204V766.564C1057.59 829.048 1091.22 887.32 1145.34 918.64ZM1085.22 824.277C1079.08 808.584 1075.4 791.848 1074.51 774.656C1100.81 773.363 1126.5 766.207 1149.53 753.701C1172.55 766.207 1198.24 773.363 1224.54 774.656C1223.66 791.842 1219.97 808.579 1213.83 824.276L1183.11 793.604L1149.53 827.154L1115.94 793.604L1085.22 824.277ZM1092.64 840.501L1115.94 817.234L1149.53 850.783L1183.11 817.234L1206.41 840.501C1193.38 865.248 1173.9 886.54 1149.53 901.654C1125.15 886.527 1105.67 865.243 1092.64 840.501Z" fill="#6150F4"/>
<path fill-rule="evenodd" clip-rule="evenodd" d="M690.811 694.007L695.001 696.437V696.414L699.19 694.007C753.302 662.709 786.933 604.437 786.933 541.93V533.504H778.575C750.628 533.504 723.193 526.147 699.19 512.237L695.001 509.807L690.811 512.237C666.808 526.147 639.373 533.504 611.426 533.504L603.068 533.57V541.93C603.068 604.415 636.699 662.686 690.811 694.007ZM630.697 599.644C624.555 583.951 620.871 567.214 619.984 550.022C646.282 548.729 671.979 541.573 695.001 529.067C718.023 541.573 743.719 548.729 770.017 550.022C769.13 567.208 765.445 583.946 759.303 599.642L728.586 568.971L695 602.52L661.415 568.971L630.697 599.644ZM638.115 615.868L661.415 592.6L695 626.15L728.586 592.6L751.885 615.867C738.858 640.614 719.374 661.906 695.001 677.02C670.627 661.894 651.142 640.609 638.115 615.868Z" fill="#6150F4"/>
<path fill-rule="evenodd" clip-rule="evenodd" d="M1145.34 1143.27L1149.53 1145.7V1145.68L1153.72 1143.27C1207.83 1111.98 1241.46 1053.7 1241.46 991.197V982.771H1233.1C1205.15 982.771 1177.72 975.414 1153.72 961.504L1149.53 959.074L1145.34 961.504C1121.33 975.414 1093.9 982.771 1065.95 982.771L1057.59 982.837V991.197C1057.59 1053.68 1091.22 1111.95 1145.34 1143.27ZM1085.22 1048.91C1079.08 1033.22 1075.4 1016.48 1074.51 999.289C1100.81 997.996 1126.5 990.84 1149.53 978.334C1172.55 990.84 1198.24 997.996 1224.54 999.289C1223.66 1016.48 1219.97 1033.21 1213.83 1048.91L1183.11 1018.24L1149.53 1051.79L1115.94 1018.24L1085.22 1048.91ZM1092.64 1065.13L1115.94 1041.87L1149.53 1075.42L1183.11 1041.87L1206.41 1065.13C1193.38 1089.88 1173.9 1111.17 1149.53 1126.29C1125.15 1111.16 1105.67 1089.88 1092.64 1065.13Z" fill="#6150F4"/>
<path fill-rule="evenodd" clip-rule="evenodd" d="M236.284 918.64L240.474 921.07V921.048L244.664 918.64C298.776 887.342 332.406 829.071 332.406 766.564V758.137H324.049C296.102 758.137 268.667 750.781 244.664 736.87L240.474 734.441L236.284 736.87C212.282 750.781 184.847 758.137 156.899 758.137L148.542 758.204V766.564C148.542 829.048 182.172 887.32 236.284 918.64ZM176.171 824.277C170.029 808.584 166.344 791.848 165.458 774.656C191.756 773.363 217.452 766.207 240.474 753.701C263.496 766.207 289.193 773.363 315.491 774.656C314.604 791.842 310.919 808.579 304.776 824.276L274.06 793.604L240.474 827.154L206.888 793.604L176.171 824.277ZM183.589 840.501L206.888 817.234L240.474 850.783L274.06 817.234L297.359 840.501C284.332 865.248 264.848 886.54 240.474 901.654C216.1 886.527 196.616 865.243 183.589 840.501Z" fill="#6150F4"/>
<path fill-rule="evenodd" clip-rule="evenodd" d="M690.811 918.64L695.001 921.07V921.048L699.19 918.64C753.302 887.342 786.933 829.071 786.933 766.564V758.137H778.575C750.628 758.137 723.193 750.781 699.19 736.87L695.001 734.441L690.811 736.87C666.808 750.781 639.373 758.137 611.426 758.137L603.068 758.204V766.564C603.068 829.048 636.699 887.32 690.811 918.64ZM630.697 824.277C624.555 808.584 620.871 791.848 619.984 774.656C646.282 773.363 671.979 766.207 695.001 753.701C718.023 766.207 743.719 773.363 770.017 774.656C769.13 791.842 765.445 808.579 759.303 824.276L728.586 793.604L695 827.154L661.415 793.604L630.697 824.277ZM638.115 840.501L661.415 817.234L695 850.783L728.586 817.234L751.885 840.501C738.858 865.248 719.374 886.54 695.001 901.654C670.627 886.527 651.142 865.243 638.115 840.501Z" fill="#6150F4"/>
<path fill-rule="evenodd" clip-rule="evenodd" d="M1145.34 1367.91L1149.53 1370.34V1370.31L1153.72 1367.91C1207.83 1336.61 1241.46 1278.34 1241.46 1215.83V1207.4H1233.1C1205.15 1207.4 1177.72 1200.05 1153.72 1186.14L1149.53 1183.71L1145.34 1186.14C1121.33 1200.05 1093.9 1207.4 1065.95 1207.4L1057.59 1207.47V1215.83C1057.59 1278.32 1091.22 1336.59 1145.34 1367.91ZM1085.22 1273.54C1079.08 1257.85 1075.4 1241.11 1074.51 1223.92C1100.81 1222.63 1126.5 1215.47 1149.53 1202.97C1172.55 1215.47 1198.24 1222.63 1224.54 1223.92C1223.66 1241.11 1219.97 1257.85 1213.83 1273.54L1183.11 1242.87L1149.53 1276.42L1115.94 1242.87L1085.22 1273.54ZM1092.64 1289.77L1115.94 1266.5L1149.53 1300.05L1183.11 1266.5L1206.41 1289.77C1193.38 1314.51 1173.9 1335.81 1149.53 1350.92C1125.15 1335.79 1105.67 1314.51 1092.64 1289.77Z" fill="#6150F4"/>
<path fill-rule="evenodd" clip-rule="evenodd" d="M1145.34 1592.54L1149.53 1594.97V1594.95L1153.72 1592.54C1207.83 1561.24 1241.46 1502.97 1241.46 1440.46V1432.04H1233.1C1205.15 1432.04 1177.72 1424.68 1153.72 1410.77L1149.53 1408.34L1145.34 1410.77C1121.33 1424.68 1093.9 1432.04 1065.95 1432.04L1057.59 1432.1V1440.46C1057.59 1502.95 1091.22 1561.22 1145.34 1592.54ZM1085.22 1498.18C1079.08 1482.48 1075.4 1465.75 1074.51 1448.56C1100.81 1447.26 1126.5 1440.11 1149.53 1427.6C1172.55 1440.11 1198.24 1447.26 1224.54 1448.56C1223.66 1465.74 1219.97 1482.48 1213.83 1498.18L1183.11 1467.5L1149.53 1501.05L1115.94 1467.5L1085.22 1498.18ZM1092.64 1514.4L1115.94 1491.13L1149.53 1524.68L1183.11 1491.13L1206.41 1514.4C1193.38 1539.15 1173.9 1560.44 1149.53 1575.55C1125.15 1560.43 1105.67 1539.14 1092.64 1514.4Z" fill="#6150F4"/>
<path fill-rule="evenodd" clip-rule="evenodd" d="M236.284 1143.27L240.474 1145.7V1145.68L244.664 1143.27C298.776 1111.98 332.406 1053.7 332.406 991.197V982.771H324.049C296.102 982.771 268.667 975.414 244.664 961.504L240.474 959.074L236.284 961.504C212.282 975.414 184.847 982.771 156.899 982.771L148.542 982.837V991.197C148.542 1053.68 182.172 1111.95 236.284 1143.27ZM176.171 1048.91C170.029 1033.22 166.344 1016.48 165.458 999.289C191.756 997.996 217.452 990.84 240.474 978.334C263.496 990.84 289.193 997.996 315.491 999.289C314.604 1016.48 310.919 1033.21 304.776 1048.91L274.06 1018.24L240.474 1051.79L206.888 1018.24L176.171 1048.91ZM183.589 1065.13L206.888 1041.87L240.474 1075.42L274.06 1041.87L297.359 1065.13C284.332 1089.88 264.848 1111.17 240.474 1126.29C216.1 1111.16 196.616 1089.88 183.589 1065.13Z" fill="#6150F4"/>
<path fill-rule="evenodd" clip-rule="evenodd" d="M1145.34 1817.18L1149.53 1819.6V1819.58L1153.72 1817.18C1207.83 1785.88 1241.46 1727.61 1241.46 1665.1V1656.67H1233.1C1205.15 1656.67 1177.72 1649.32 1153.72 1635.41L1149.53 1632.98L1145.34 1635.41C1121.33 1649.32 1093.9 1656.67 1065.95 1656.67L1057.59 1656.74V1665.1C1057.59 1727.58 1091.22 1785.85 1145.34 1817.18ZM1085.22 1722.81C1079.08 1707.12 1075.4 1690.38 1074.51 1673.19C1100.81 1671.9 1126.5 1664.74 1149.53 1652.24C1172.55 1664.74 1198.24 1671.9 1224.54 1673.19C1223.66 1690.38 1219.97 1707.11 1213.83 1722.81L1183.11 1692.14L1149.53 1725.69L1115.94 1692.14L1085.22 1722.81ZM1092.64 1739.04L1115.94 1715.77L1149.53 1749.32L1183.11 1715.77L1206.41 1739.04C1193.38 1763.78 1173.9 1785.07 1149.53 1800.19C1125.15 1785.06 1105.67 1763.78 1092.64 1739.04Z" fill="#6150F4"/>
<path fill-rule="evenodd" clip-rule="evenodd" d="M1145.34 2041.81L1149.53 2044.24V2044.22L1153.72 2041.81C1207.83 2010.51 1241.46 1952.24 1241.46 1889.73V1881.31H1233.1C1205.15 1881.31 1177.72 1873.95 1153.72 1860.04L1149.53 1857.61L1145.34 1860.04C1121.33 1873.95 1093.9 1881.31 1065.95 1881.31L1057.59 1881.37V1889.73C1057.59 1952.22 1091.22 2010.49 1145.34 2041.81ZM1085.22 1947.45C1079.08 1931.75 1075.4 1915.02 1074.51 1897.82C1100.81 1896.53 1126.5 1889.38 1149.53 1876.87C1172.55 1889.38 1198.24 1896.53 1224.54 1897.82C1223.66 1915.01 1219.97 1931.75 1213.83 1947.45L1183.11 1916.77L1149.53 1950.32L1115.94 1916.77L1085.22 1947.45ZM1092.64 1963.67L1115.94 1940.4L1149.53 1973.95L1183.11 1940.4L1206.41 1963.67C1193.38 1988.42 1173.9 2009.71 1149.53 2024.82C1125.15 2009.7 1105.67 1988.41 1092.64 1963.67Z" fill="#6150F4"/>
<path fill-rule="evenodd" clip-rule="evenodd" d="M1145.34 2266.44L1149.53 2268.87V2268.85L1153.72 2266.44C1207.83 2235.15 1241.46 2176.87 1241.46 2114.37V2105.94H1233.1C1205.15 2105.94 1177.72 2098.58 1153.72 2084.67L1149.53 2082.24L1145.34 2084.67C1121.33 2098.58 1093.9 2105.94 1065.95 2105.94L1057.59 2106.01V2114.37C1057.59 2176.85 1091.22 2235.12 1145.34 2266.44ZM1085.22 2172.08C1079.08 2156.39 1075.4 2139.65 1074.51 2122.46C1100.81 2121.17 1126.5 2114.01 1149.53 2101.5C1172.55 2114.01 1198.24 2121.17 1224.54 2122.46C1223.66 2139.65 1219.97 2156.38 1213.83 2172.08L1183.11 2141.41L1149.53 2174.96L1115.94 2141.41L1085.22 2172.08ZM1092.64 2188.3L1115.94 2165.04L1149.53 2198.59L1183.11 2165.04L1206.41 2188.3C1193.38 2213.05 1173.9 2234.34 1149.53 2249.46C1125.15 2234.33 1105.67 2213.05 1092.64 2188.3Z" fill="#6150F4"/>
<path fill-rule="evenodd" clip-rule="evenodd" d="M1145.34 2491.08L1149.53 2493.51V2493.49L1153.72 2491.08C1207.83 2459.78 1241.46 2401.51 1241.46 2339V2330.57H1233.1C1205.15 2330.57 1177.72 2323.22 1153.72 2309.31L1149.53 2306.88L1145.34 2309.31C1121.33 2323.22 1093.9 2330.57 1065.95 2330.57L1057.59 2330.64V2339C1057.59 2401.49 1091.22 2459.76 1145.34 2491.08ZM1085.22 2396.72C1079.08 2381.02 1075.4 2364.29 1074.51 2347.09C1100.81 2345.8 1126.5 2338.64 1149.53 2326.14C1172.55 2338.64 1198.24 2345.8 1224.54 2347.09C1223.66 2364.28 1219.97 2381.02 1213.83 2396.71L1183.11 2366.04L1149.53 2399.59L1115.94 2366.04L1085.22 2396.72ZM1092.64 2412.94L1115.94 2389.67L1149.53 2423.22L1183.11 2389.67L1206.41 2412.94C1193.38 2437.69 1173.9 2458.98 1149.53 2474.09C1125.15 2458.96 1105.67 2437.68 1092.64 2412.94Z" fill="#6150F4"/>
<path fill-rule="evenodd" clip-rule="evenodd" d="M1145.34 2715.71L1149.53 2718.14V2718.12L1153.72 2715.71C1207.83 2684.41 1241.46 2626.14 1241.46 2563.64V2555.21H1233.1C1205.15 2555.21 1177.72 2547.85 1153.72 2533.94L1149.53 2531.51L1145.34 2533.94C1121.33 2547.85 1093.9 2555.21 1065.95 2555.21L1057.59 2555.28V2563.64C1057.59 2626.12 1091.22 2684.39 1145.34 2715.71ZM1085.22 2621.35C1079.08 2605.66 1075.4 2588.92 1074.51 2571.73C1100.81 2570.43 1126.5 2563.28 1149.53 2550.77C1172.55 2563.28 1198.24 2570.43 1224.54 2571.73C1223.66 2588.91 1219.97 2605.65 1213.83 2621.35L1183.11 2590.68L1149.53 2624.23L1115.94 2590.68L1085.22 2621.35ZM1092.64 2637.57L1115.94 2614.31L1149.53 2647.86L1183.11 2614.31L1206.41 2637.57C1193.38 2662.32 1173.9 2683.61 1149.53 2698.73C1125.15 2683.6 1105.67 2662.32 1092.64 2637.57Z" fill="#6150F4"/>
<path fill-rule="evenodd" clip-rule="evenodd" d="M1145.34 2940.35L1149.53 2942.78V2942.75L1153.72 2940.35C1207.83 2909.05 1241.46 2850.78 1241.46 2788.27V2779.84H1233.1C1205.15 2779.84 1177.72 2772.49 1153.72 2758.58L1149.53 2756.15L1145.34 2758.58C1121.33 2772.49 1093.9 2779.84 1065.95 2779.84L1057.59 2779.91V2788.27C1057.59 2850.75 1091.22 2909.03 1145.34 2940.35ZM1085.22 2845.98C1079.08 2830.29 1075.4 2813.55 1074.51 2796.36C1100.81 2795.07 1126.5 2787.91 1149.53 2775.41C1172.55 2787.91 1198.24 2795.07 1224.54 2796.36C1223.66 2813.55 1219.97 2830.29 1213.83 2845.98L1183.11 2815.31L1149.53 2848.86L1115.94 2815.31L1085.22 2845.98ZM1092.64 2862.21L1115.94 2838.94L1149.53 2872.49L1183.11 2838.94L1206.41 2862.21C1193.38 2886.95 1173.9 2908.25 1149.53 2923.36C1125.15 2908.23 1105.67 2886.95 1092.64 2862.21Z" fill="#6150F4"/>
<path fill-rule="evenodd" clip-rule="evenodd" d="M690.811 1143.27L695.001 1145.7V1145.68L699.19 1143.27C753.302 1111.98 786.933 1053.7 786.933 991.197V982.771H778.575C750.628 982.771 723.193 975.414 699.19 961.504L695.001 959.074L690.811 961.504C666.808 975.414 639.373 982.771 611.426 982.771L603.068 982.837V991.197C603.068 1053.68 636.699 1111.95 690.811 1143.27ZM630.697 1048.91C624.555 1033.22 620.871 1016.48 619.984 999.289C646.282 997.996 671.979 990.84 695.001 978.334C718.023 990.84 743.719 997.996 770.017 999.289C769.13 1016.48 765.445 1033.21 759.303 1048.91L728.586 1018.24L695 1051.79L661.415 1018.24L630.697 1048.91ZM638.115 1065.13L661.415 1041.87L695 1075.42L728.586 1041.87L751.885 1065.13C738.858 1089.88 719.374 1111.17 695.001 1126.29C670.627 1111.16 651.142 1089.88 638.115 1065.13Z" fill="#6150F4"/>
<path fill-rule="evenodd" clip-rule="evenodd" d="M918.074 121.423L922.264 123.853V123.831L926.454 121.423C980.565 90.125 1014.2 31.8534 1014.2 -30.6537V-39.0801H1005.84C977.891 -39.0801 950.456 -46.4365 926.454 -60.3468L922.264 -62.7767L918.074 -60.3468C894.071 -46.4365 866.636 -39.0801 838.689 -39.0801L830.332 -39.0133V-30.6537C830.332 31.8311 863.962 90.1027 918.074 121.423ZM857.96 27.06C851.819 11.3669 848.134 -5.36945 847.247 -22.5617C873.545 -23.8546 899.242 -31.0104 922.264 -43.5163C945.286 -31.0104 970.982 -23.8546 997.28 -22.5617C996.394 -5.37549 992.708 11.3622 986.566 27.0587L955.85 -3.6132L922.264 29.9365L888.678 -3.6132L857.96 27.06ZM865.379 43.284L888.678 20.0165L922.264 53.5661L955.85 20.0165L979.148 43.2835C966.121 68.0307 946.637 89.3223 922.264 104.437C897.89 89.3098 878.406 68.0257 865.379 43.284Z" fill="#6150F4"/>
<path fill-rule="evenodd" clip-rule="evenodd" d="M918.074 346.06L922.264 348.49V348.467L926.454 346.06C980.565 314.762 1014.2 256.49 1014.2 193.983V185.557H1005.84C977.891 185.557 950.456 178.2 926.454 164.29L922.264 161.86L918.074 164.29C894.071 178.2 866.636 185.557 838.689 185.557L830.332 185.623V193.983C830.332 256.468 863.962 314.739 918.074 346.06ZM857.96 251.697C851.819 236.004 848.134 219.267 847.247 202.075C873.545 200.782 899.242 193.626 922.264 181.12C945.286 193.626 970.982 200.782 997.28 202.075C996.394 219.261 992.708 235.999 986.566 251.695L955.85 221.023L922.264 254.573L888.678 221.023L857.96 251.697ZM865.379 267.921L888.678 244.653L922.264 278.203L955.85 244.653L979.148 267.92C966.121 292.667 946.637 313.959 922.264 329.073C897.89 313.946 878.406 292.662 865.379 267.921Z" fill="#6150F4"/>
<path fill-rule="evenodd" clip-rule="evenodd" d="M236.284 1367.91L240.474 1370.34V1370.31L244.664 1367.91C298.776 1336.61 332.406 1278.34 332.406 1215.83V1207.4H324.049C296.102 1207.4 268.667 1200.05 244.664 1186.14L240.474 1183.71L236.284 1186.14C212.282 1200.05 184.847 1207.4 156.899 1207.4L148.542 1207.47V1215.83C148.542 1278.32 182.172 1336.59 236.284 1367.91ZM176.171 1273.54C170.029 1257.85 166.344 1241.11 165.458 1223.92C191.756 1222.63 217.452 1215.47 240.474 1202.97C263.496 1215.47 289.193 1222.63 315.491 1223.92C314.604 1241.11 310.919 1257.85 304.776 1273.54L274.06 1242.87L240.474 1276.42L206.888 1242.87L176.171 1273.54ZM183.589 1289.77L206.888 1266.5L240.474 1300.05L274.06 1266.5L297.359 1289.77C284.332 1314.51 264.848 1335.81 240.474 1350.92C216.1 1335.79 196.616 1314.51 183.589 1289.77Z" fill="#6150F4"/>
<path fill-rule="evenodd" clip-rule="evenodd" d="M918.074 570.693L922.264 573.123V573.101L926.454 570.693C980.565 539.395 1014.2 481.124 1014.2 418.616V410.19H1005.84C977.891 410.19 950.456 402.834 926.454 388.923L922.264 386.494L918.074 388.923C894.071 402.834 866.636 410.19 838.689 410.19L830.332 410.257V418.616C830.332 481.101 863.962 539.373 918.074 570.693ZM857.96 476.33C851.819 460.637 848.134 443.901 847.247 426.709C873.545 425.416 899.242 418.26 922.264 405.754C945.286 418.26 970.982 425.416 997.28 426.709C996.394 443.895 992.708 460.632 986.566 476.329L955.85 445.657L922.264 479.207L888.678 445.657L857.96 476.33ZM865.379 492.554L888.678 469.287L922.264 502.836L955.85 469.287L979.148 492.554C966.121 517.301 946.637 538.593 922.264 553.707C897.89 538.58 878.406 517.296 865.379 492.554Z" fill="#6150F4"/>
<path fill-rule="evenodd" clip-rule="evenodd" d="M690.811 1367.91L695.001 1370.34V1370.31L699.19 1367.91C753.302 1336.61 786.933 1278.34 786.933 1215.83V1207.4H778.575C750.628 1207.4 723.193 1200.05 699.19 1186.14L695.001 1183.71L690.811 1186.14C666.808 1200.05 639.373 1207.4 611.426 1207.4L603.068 1207.47V1215.83C603.068 1278.32 636.699 1336.59 690.811 1367.91ZM630.697 1273.54C624.555 1257.85 620.871 1241.11 619.984 1223.92C646.282 1222.63 671.979 1215.47 695.001 1202.97C718.023 1215.47 743.719 1222.63 770.017 1223.92C769.13 1241.11 765.445 1257.85 759.303 1273.54L728.586 1242.87L695 1276.42L661.415 1242.87L630.697 1273.54ZM638.115 1289.77L661.415 1266.5L695 1300.05L728.586 1266.5L751.885 1289.77C738.858 1314.51 719.374 1335.81 695.001 1350.92C670.627 1335.79 651.142 1314.51 638.115 1289.77Z" fill="#6150F4"/>
<path fill-rule="evenodd" clip-rule="evenodd" d="M236.284 1592.54L240.474 1594.97V1594.95L244.664 1592.54C298.776 1561.24 332.406 1502.97 332.406 1440.46V1432.04H324.049C296.102 1432.04 268.667 1424.68 244.664 1410.77L240.474 1408.34L236.284 1410.77C212.282 1424.68 184.847 1432.04 156.899 1432.04L148.542 1432.1V1440.46C148.542 1502.95 182.172 1561.22 236.284 1592.54ZM176.171 1498.18C170.029 1482.48 166.344 1465.75 165.458 1448.56C191.756 1447.26 217.452 1440.11 240.474 1427.6C263.496 1440.11 289.193 1447.26 315.491 1448.56C314.604 1465.74 310.919 1482.48 304.776 1498.18L274.06 1467.5L240.474 1501.05L206.888 1467.5L176.171 1498.18ZM183.589 1514.4L206.888 1491.13L240.474 1524.68L274.06 1491.13L297.359 1514.4C284.332 1539.15 264.848 1560.44 240.474 1575.55C216.1 1560.43 196.616 1539.14 183.589 1514.4Z" fill="#6150F4"/>
<path fill-rule="evenodd" clip-rule="evenodd" d="M918.074 795.327L922.264 797.757V797.734L926.454 795.327C980.565 764.029 1014.2 705.757 1014.2 643.25V634.824H1005.84C977.891 634.824 950.456 627.467 926.454 613.557L922.264 611.127L918.074 613.557C894.071 627.467 866.636 634.824 838.689 634.824L830.332 634.89V643.25C830.332 705.735 863.962 764.006 918.074 795.327ZM857.96 700.964C851.819 685.271 848.134 668.534 847.247 651.342C873.545 650.049 899.242 642.893 922.264 630.387C945.286 642.893 970.982 650.049 997.28 651.342C996.394 668.528 992.708 685.266 986.566 700.962L955.85 670.29L922.264 703.84L888.678 670.29L857.96 700.964ZM865.379 717.188L888.678 693.92L922.264 727.47L955.85 693.92L979.148 717.187C966.121 741.934 946.637 763.226 922.264 778.34C897.89 763.213 878.406 741.929 865.379 717.188Z" fill="#6150F4"/>
<path fill-rule="evenodd" clip-rule="evenodd" d="M690.811 1592.54L695.001 1594.97V1594.95L699.19 1592.54C753.302 1561.24 786.933 1502.97 786.933 1440.46V1432.04H778.575C750.628 1432.04 723.193 1424.68 699.19 1410.77L695.001 1408.34L690.811 1410.77C666.808 1424.68 639.373 1432.04 611.426 1432.04L603.068 1432.1V1440.46C603.068 1502.95 636.699 1561.22 690.811 1592.54ZM630.697 1498.18C624.555 1482.48 620.871 1465.75 619.984 1448.56C646.282 1447.26 671.979 1440.11 695.001 1427.6C718.023 1440.11 743.719 1447.26 770.017 1448.56C769.13 1465.74 765.445 1482.48 759.303 1498.18L728.586 1467.5L695 1501.05L661.415 1467.5L630.697 1498.18ZM638.115 1514.4L661.415 1491.13L695 1524.68L728.586 1491.13L751.885 1514.4C738.858 1539.15 719.374 1560.44 695.001 1575.55C670.627 1560.43 651.142 1539.14 638.115 1514.4Z" fill="#6150F4"/>
<path fill-rule="evenodd" clip-rule="evenodd" d="M918.074 1693.86L922.264 1696.29V1696.27L926.454 1693.86C980.565 1662.56 1014.2 1604.29 1014.2 1541.78V1533.36H1005.84C977.891 1533.36 950.456 1526 926.454 1512.09L922.264 1509.66L918.074 1512.09C894.071 1526 866.636 1533.36 838.689 1533.36L830.332 1533.42V1541.78C830.332 1604.27 863.962 1662.54 918.074 1693.86ZM857.96 1599.5C851.819 1583.8 848.134 1567.07 847.247 1549.88C873.545 1548.58 899.242 1541.43 922.264 1528.92C945.286 1541.43 970.982 1548.58 997.28 1549.88C996.394 1567.06 992.708 1583.8 986.566 1599.5L955.85 1568.82L922.264 1602.37L888.678 1568.82L857.96 1599.5ZM865.379 1615.72L888.678 1592.45L922.264 1626L955.85 1592.45L979.148 1615.72C966.121 1640.47 946.637 1661.76 922.264 1676.87C897.89 1661.75 878.406 1640.46 865.379 1615.72Z" fill="#6150F4"/>
<path fill-rule="evenodd" clip-rule="evenodd" d="M918.074 1019.96L922.264 1022.39V1022.37L926.454 1019.96C980.565 988.662 1014.2 930.391 1014.2 867.883V859.457H1005.84C977.891 859.457 950.456 852.101 926.454 838.19L922.264 835.76L918.074 838.19C894.071 852.101 866.636 859.457 838.689 859.457L830.332 859.524V867.883C830.332 930.368 863.962 988.64 918.074 1019.96ZM857.96 925.597C851.819 909.904 848.134 893.168 847.247 875.975C873.545 874.683 899.242 867.527 922.264 855.021C945.286 867.527 970.982 874.683 997.28 875.975C996.394 893.162 992.708 909.899 986.566 925.596L955.85 894.924L922.264 928.474L888.678 894.924L857.96 925.597ZM865.379 941.821L888.678 918.554L922.264 952.103L955.85 918.554L979.148 941.821C966.121 966.568 946.637 987.859 922.264 1002.97C897.89 987.847 878.406 966.563 865.379 941.821Z" fill="#6150F4"/>
<path fill-rule="evenodd" clip-rule="evenodd" d="M236.284 1817.18L240.474 1819.6V1819.58L244.664 1817.18C298.776 1785.88 332.406 1727.61 332.406 1665.1V1656.67H324.049C296.102 1656.67 268.667 1649.32 244.664 1635.41L240.474 1632.98L236.284 1635.41C212.282 1649.32 184.847 1656.67 156.899 1656.67L148.542 1656.74V1665.1C148.542 1727.58 182.172 1785.85 236.284 1817.18ZM176.171 1722.81C170.029 1707.12 166.344 1690.38 165.458 1673.19C191.756 1671.9 217.452 1664.74 240.474 1652.24C263.496 1664.74 289.193 1671.9 315.491 1673.19C314.604 1690.38 310.919 1707.11 304.776 1722.81L274.06 1692.14L240.474 1725.69L206.888 1692.14L176.171 1722.81ZM183.589 1739.04L206.888 1715.77L240.474 1749.32L274.06 1715.77L297.359 1739.04C284.332 1763.78 264.848 1785.07 240.474 1800.19C216.1 1785.06 196.616 1763.78 183.589 1739.04Z" fill="#6150F4"/>
<path fill-rule="evenodd" clip-rule="evenodd" d="M236.284 2041.81L240.474 2044.24V2044.22L244.664 2041.81C298.776 2010.51 332.406 1952.24 332.406 1889.73V1881.31H324.049C296.102 1881.31 268.667 1873.95 244.664 1860.04L240.474 1857.61L236.284 1860.04C212.282 1873.95 184.847 1881.31 156.899 1881.31L148.542 1881.37V1889.73C148.542 1952.22 182.172 2010.49 236.284 2041.81ZM176.171 1947.45C170.029 1931.75 166.344 1915.02 165.458 1897.82C191.756 1896.53 217.452 1889.38 240.474 1876.87C263.496 1889.38 289.193 1896.53 315.491 1897.82C314.604 1915.01 310.919 1931.75 304.776 1947.45L274.06 1916.77L240.474 1950.32L206.888 1916.77L176.171 1947.45ZM183.589 1963.67L206.888 1940.4L240.474 1973.95L274.06 1940.4L297.359 1963.67C284.332 1988.42 264.848 2009.71 240.474 2024.82C216.1 2009.7 196.616 1988.41 183.589 1963.67Z" fill="#6150F4"/>
<path fill-rule="evenodd" clip-rule="evenodd" d="M236.284 2266.44L240.474 2268.87V2268.85L244.664 2266.44C298.776 2235.15 332.406 2176.87 332.406 2114.37V2105.94H324.049C296.102 2105.94 268.667 2098.58 244.664 2084.67L240.474 2082.24L236.284 2084.67C212.282 2098.58 184.847 2105.94 156.899 2105.94L148.542 2106.01V2114.37C148.542 2176.85 182.172 2235.12 236.284 2266.44ZM176.171 2172.08C170.029 2156.39 166.344 2139.65 165.458 2122.46C191.756 2121.17 217.452 2114.01 240.474 2101.5C263.496 2114.01 289.193 2121.17 315.491 2122.46C314.604 2139.65 310.919 2156.38 304.776 2172.08L274.06 2141.41L240.474 2174.96L206.888 2141.41L176.171 2172.08ZM183.589 2188.3L206.888 2165.04L240.474 2198.59L274.06 2165.04L297.359 2188.3C284.332 2213.05 264.848 2234.34 240.474 2249.46C216.1 2234.33 196.616 2213.05 183.589 2188.3Z" fill="#6150F4"/>
<path fill-rule="evenodd" clip-rule="evenodd" d="M236.284 2491.08L240.474 2493.51V2493.49L244.664 2491.08C298.776 2459.78 332.406 2401.51 332.406 2339V2330.57H324.049C296.102 2330.57 268.667 2323.22 244.664 2309.31L240.474 2306.88L236.284 2309.31C212.282 2323.22 184.847 2330.57 156.899 2330.57L148.542 2330.64V2339C148.542 2401.49 182.172 2459.76 236.284 2491.08ZM176.171 2396.72C170.029 2381.02 166.344 2364.29 165.458 2347.09C191.756 2345.8 217.452 2338.64 240.474 2326.14C263.496 2338.64 289.193 2345.8 315.491 2347.09C314.604 2364.28 310.919 2381.02 304.776 2396.71L274.06 2366.04L240.474 2399.59L206.888 2366.04L176.171 2396.72ZM183.589 2412.94L206.888 2389.67L240.474 2423.22L274.06 2389.67L297.359 2412.94C284.332 2437.69 264.848 2458.98 240.474 2474.09C216.1 2458.96 196.616 2437.68 183.589 2412.94Z" fill="#6150F4"/>
<path fill-rule="evenodd" clip-rule="evenodd" d="M236.284 2715.71L240.474 2718.14V2718.12L244.664 2715.71C298.776 2684.41 332.406 2626.14 332.406 2563.64V2555.21H324.049C296.102 2555.21 268.667 2547.85 244.664 2533.94L240.474 2531.51L236.284 2533.94C212.282 2547.85 184.847 2555.21 156.899 2555.21L148.542 2555.28V2563.64C148.542 2626.12 182.172 2684.39 236.284 2715.71ZM176.171 2621.35C170.029 2605.66 166.344 2588.92 165.458 2571.73C191.756 2570.43 217.452 2563.28 240.474 2550.77C263.496 2563.28 289.193 2570.43 315.491 2571.73C314.604 2588.91 310.919 2605.65 304.776 2621.35L274.06 2590.68L240.474 2624.23L206.888 2590.68L176.171 2621.35ZM183.589 2637.57L206.888 2614.31L240.474 2647.86L274.06 2614.31L297.359 2637.57C284.332 2662.32 264.848 2683.61 240.474 2698.73C216.1 2683.6 196.616 2662.32 183.589 2637.57Z" fill="#6150F4"/>
<path fill-rule="evenodd" clip-rule="evenodd" d="M236.284 2940.35L240.474 2942.78V2942.75L244.664 2940.35C298.776 2909.05 332.406 2850.78 332.406 2788.27V2779.84H324.049C296.102 2779.84 268.667 2772.49 244.664 2758.58L240.474 2756.15L236.284 2758.58C212.282 2772.49 184.847 2779.84 156.899 2779.84L148.542 2779.91V2788.27C148.542 2850.75 182.172 2909.03 236.284 2940.35ZM176.171 2845.98C170.029 2830.29 166.344 2813.55 165.458 2796.36C191.756 2795.07 217.452 2787.91 240.474 2775.41C263.496 2787.91 289.193 2795.07 315.491 2796.36C314.604 2813.55 310.919 2830.29 304.776 2845.98L274.06 2815.31L240.474 2848.86L206.888 2815.31L176.171 2845.98ZM183.589 2862.21L206.888 2838.94L240.474 2872.49L274.06 2838.94L297.359 2862.21C284.332 2886.95 264.848 2908.25 240.474 2923.36C216.1 2908.23 196.616 2886.95 183.589 2862.21Z" fill="#6150F4"/>
<path fill-rule="evenodd" clip-rule="evenodd" d="M918.074 1244.59L922.264 1247.02V1247L926.454 1244.59C980.565 1213.3 1014.2 1155.02 1014.2 1092.52V1084.09H1005.84C977.891 1084.09 950.456 1076.73 926.454 1062.82L922.264 1060.39L918.074 1062.82C894.071 1076.73 866.636 1084.09 838.689 1084.09L830.332 1084.16V1092.52C830.332 1155 863.962 1213.27 918.074 1244.59ZM857.96 1150.23C851.819 1134.54 848.134 1117.8 847.247 1100.61C873.545 1099.32 899.242 1092.16 922.264 1079.65C945.286 1092.16 970.982 1099.32 997.28 1100.61C996.394 1117.8 992.708 1134.53 986.566 1150.23L955.85 1119.56L922.264 1153.11L888.678 1119.56L857.96 1150.23ZM865.379 1166.45L888.678 1143.19L922.264 1176.74L955.85 1143.19L979.148 1166.45C966.121 1191.2 946.637 1212.49 922.264 1227.61C897.89 1212.48 878.406 1191.2 865.379 1166.45Z" fill="#6150F4"/>
<path fill-rule="evenodd" clip-rule="evenodd" d="M690.811 1817.18L695.001 1819.6V1819.58L699.19 1817.18C753.302 1785.88 786.933 1727.61 786.933 1665.1V1656.67H778.575C750.628 1656.67 723.193 1649.32 699.19 1635.41L695.001 1632.98L690.811 1635.41C666.808 1649.32 639.373 1656.67 611.426 1656.67L603.068 1656.74V1665.1C603.068 1727.58 636.699 1785.85 690.811 1817.18ZM630.697 1722.81C624.555 1707.12 620.871 1690.38 619.984 1673.19C646.282 1671.9 671.979 1664.74 695.001 1652.24C718.023 1664.74 743.719 1671.9 770.017 1673.19C769.13 1690.38 765.445 1707.11 759.303 1722.81L728.586 1692.14L695 1725.69L661.415 1692.14L630.697 1722.81ZM638.115 1739.04L661.415 1715.77L695 1749.32L728.586 1715.77L751.885 1739.04C738.858 1763.78 719.374 1785.07 695.001 1800.19C670.627 1785.06 651.142 1763.78 638.115 1739.04Z" fill="#6150F4"/>
<path fill-rule="evenodd" clip-rule="evenodd" d="M690.811 2041.81L695.001 2044.24V2044.22L699.19 2041.81C753.302 2010.51 786.933 1952.24 786.933 1889.73V1881.31H778.575C750.628 1881.31 723.193 1873.95 699.19 1860.04L695.001 1857.61L690.811 1860.04C666.808 1873.95 639.373 1881.31 611.426 1881.31L603.068 1881.37V1889.73C603.068 1952.22 636.699 2010.49 690.811 2041.81ZM630.697 1947.45C624.555 1931.75 620.871 1915.02 619.984 1897.82C646.282 1896.53 671.979 1889.38 695.001 1876.87C718.023 1889.38 743.719 1896.53 770.017 1897.82C769.13 1915.01 765.445 1931.75 759.303 1947.45L728.586 1916.77L695 1950.32L661.415 1916.77L630.697 1947.45ZM638.115 1963.67L661.415 1940.4L695 1973.95L728.586 1940.4L751.885 1963.67C738.858 1988.42 719.374 2009.71 695.001 2024.82C670.627 2009.7 651.142 1988.41 638.115 1963.67Z" fill="#6150F4"/>
<path fill-rule="evenodd" clip-rule="evenodd" d="M690.811 2266.44L695.001 2268.87V2268.85L699.19 2266.44C753.302 2235.15 786.933 2176.87 786.933 2114.37V2105.94H778.575C750.628 2105.94 723.193 2098.58 699.19 2084.67L695.001 2082.24L690.811 2084.67C666.808 2098.58 639.373 2105.94 611.426 2105.94L603.068 2106.01V2114.37C603.068 2176.85 636.699 2235.12 690.811 2266.44ZM630.697 2172.08C624.555 2156.39 620.871 2139.65 619.984 2122.46C646.282 2121.17 671.979 2114.01 695.001 2101.5C718.023 2114.01 743.719 2121.17 770.017 2122.46C769.13 2139.65 765.445 2156.38 759.303 2172.08L728.586 2141.41L695 2174.96L661.415 2141.41L630.697 2172.08ZM638.115 2188.3L661.415 2165.04L695 2198.59L728.586 2165.04L751.885 2188.3C738.858 2213.05 719.374 2234.34 695.001 2249.46C670.627 2234.33 651.142 2213.05 638.115 2188.3Z" fill="#6150F4"/>
<path fill-rule="evenodd" clip-rule="evenodd" d="M690.811 2491.08L695.001 2493.51V2493.49L699.19 2491.08C753.302 2459.78 786.933 2401.51 786.933 2339V2330.57H778.575C750.628 2330.57 723.193 2323.22 699.19 2309.31L695.001 2306.88L690.811 2309.31C666.808 2323.22 639.373 2330.57 611.426 2330.57L603.068 2330.64V2339C603.068 2401.49 636.699 2459.76 690.811 2491.08ZM630.697 2396.72C624.555 2381.02 620.871 2364.29 619.984 2347.09C646.282 2345.8 671.979 2338.64 695.001 2326.14C718.023 2338.64 743.719 2345.8 770.017 2347.09C769.13 2364.28 765.445 2381.02 759.303 2396.71L728.586 2366.04L695 2399.59L661.415 2366.04L630.697 2396.72ZM638.115 2412.94L661.415 2389.67L695 2423.22L728.586 2389.67L751.885 2412.94C738.858 2437.69 719.374 2458.98 695.001 2474.09C670.627 2458.96 651.142 2437.68 638.115 2412.94Z" fill="#6150F4"/>
<path fill-rule="evenodd" clip-rule="evenodd" d="M690.811 2715.71L695.001 2718.14V2718.12L699.19 2715.71C753.302 2684.41 786.933 2626.14 786.933 2563.64V2555.21H778.575C750.628 2555.21 723.193 2547.85 699.19 2533.94L695.001 2531.51L690.811 2533.94C666.808 2547.85 639.373 2555.21 611.426 2555.21L603.068 2555.28V2563.64C603.068 2626.12 636.699 2684.39 690.811 2715.71ZM630.697 2621.35C624.555 2605.66 620.871 2588.92 619.984 2571.73C646.282 2570.43 671.979 2563.28 695.001 2550.77C718.023 2563.28 743.719 2570.43 770.017 2571.73C769.13 2588.91 765.445 2605.65 759.303 2621.35L728.586 2590.68L695 2624.23L661.415 2590.68L630.697 2621.35ZM638.115 2637.57L661.415 2614.31L695 2647.86L728.586 2614.31L751.885 2637.57C738.858 2662.32 719.374 2683.61 695.001 2698.73C670.627 2683.6 651.142 2662.32 638.115 2637.57Z" fill="#6150F4"/>
<path fill-rule="evenodd" clip-rule="evenodd" d="M690.811 2940.35L695.001 2942.78V2942.75L699.19 2940.35C753.302 2909.05 786.933 2850.78 786.933 2788.27V2779.84H778.575C750.628 2779.84 723.193 2772.49 699.19 2758.58L695.001 2756.15L690.811 2758.58C666.808 2772.49 639.373 2779.84 611.426 2779.84L603.068 2779.91V2788.27C603.068 2850.75 636.699 2909.03 690.811 2940.35ZM630.697 2845.98C624.555 2830.29 620.871 2813.55 619.984 2796.36C646.282 2795.07 671.979 2787.91 695.001 2775.41C718.023 2787.91 743.719 2795.07 770.017 2796.36C769.13 2813.55 765.445 2830.29 759.303 2845.98L728.586 2815.31L695 2848.86L661.415 2815.31L630.697 2845.98ZM638.115 2862.21L661.415 2838.94L695 2872.49L728.586 2838.94L751.885 2862.21C738.858 2886.95 719.374 2908.25 695.001 2923.36C670.627 2908.23 651.142 2886.95 638.115 2862.21Z" fill="#6150F4"/>
<path fill-rule="evenodd" clip-rule="evenodd" d="M918.074 1469.23L922.264 1471.66V1471.63L926.454 1469.23C980.565 1437.93 1014.2 1379.66 1014.2 1317.15V1308.72H1005.84C977.891 1308.72 950.456 1301.37 926.454 1287.46L922.264 1285.03L918.074 1287.46C894.071 1301.37 866.636 1308.72 838.689 1308.72L830.332 1308.79V1317.15C830.332 1379.64 863.962 1437.91 918.074 1469.23ZM857.96 1374.86C851.819 1359.17 848.134 1342.43 847.247 1325.24C873.545 1323.95 899.242 1316.79 922.264 1304.29C945.286 1316.79 970.982 1323.95 997.28 1325.24C996.394 1342.43 992.708 1359.17 986.566 1374.86L955.85 1344.19L922.264 1377.74L888.678 1344.19L857.96 1374.86ZM865.379 1391.09L888.678 1367.82L922.264 1401.37L955.85 1367.82L979.148 1391.09C966.121 1415.83 946.637 1437.13 922.264 1452.24C897.89 1437.11 878.406 1415.83 865.379 1391.09Z" fill="#6150F4"/>
<path fill-rule="evenodd" clip-rule="evenodd" d="M918.074 1918.49L922.264 1920.92V1920.9L926.454 1918.49C980.565 1887.2 1014.2 1828.93 1014.2 1766.42V1757.99H1005.84C977.891 1757.99 950.456 1750.64 926.454 1736.73L922.264 1734.3L918.074 1736.73C894.071 1750.64 866.636 1757.99 838.689 1757.99L830.332 1758.06V1766.42C830.332 1828.9 863.962 1887.17 918.074 1918.49ZM857.96 1824.13C851.819 1808.44 848.134 1791.7 847.247 1774.51C873.545 1773.22 899.242 1766.06 922.264 1753.56C945.286 1766.06 970.982 1773.22 997.28 1774.51C996.394 1791.7 992.708 1808.43 986.566 1824.13L955.85 1793.46L922.264 1827.01L888.678 1793.46L857.96 1824.13ZM865.379 1840.36L888.678 1817.09L922.264 1850.64L955.85 1817.09L979.148 1840.36C966.121 1865.1 946.637 1886.39 922.264 1901.51C897.89 1886.38 878.406 1865.1 865.379 1840.36Z" fill="#6150F4"/>
<path fill-rule="evenodd" clip-rule="evenodd" d="M918.074 2143.13L922.264 2145.56V2145.54L926.454 2143.13C980.565 2111.83 1014.2 2053.56 1014.2 1991.05V1982.63H1005.84C977.891 1982.63 950.456 1975.27 926.454 1961.36L922.264 1958.93L918.074 1961.36C894.071 1975.27 866.636 1982.63 838.689 1982.63L830.332 1982.69V1991.05C830.332 2053.54 863.962 2111.81 918.074 2143.13ZM857.96 2048.77C851.819 2033.07 848.134 2016.34 847.247 1999.14C873.545 1997.85 899.242 1990.7 922.264 1978.19C945.286 1990.7 970.982 1997.85 997.28 1999.14C996.394 2016.33 992.708 2033.07 986.566 2048.77L955.85 2018.09L922.264 2051.64L888.678 2018.09L857.96 2048.77ZM865.379 2064.99L888.678 2041.72L922.264 2075.27L955.85 2041.72L979.148 2064.99C966.121 2089.74 946.637 2111.03 922.264 2126.14C897.89 2111.02 878.406 2089.73 865.379 2064.99Z" fill="#6150F4"/>
<path fill-rule="evenodd" clip-rule="evenodd" d="M918.074 2367.76L922.264 2370.19V2370.17L926.454 2367.76C980.565 2336.47 1014.2 2278.19 1014.2 2215.69V2207.26H1005.84C977.891 2207.26 950.456 2199.9 926.454 2185.99L922.264 2183.56L918.074 2185.99C894.071 2199.9 866.636 2207.26 838.689 2207.26L830.332 2207.33V2215.69C830.332 2278.17 863.962 2336.44 918.074 2367.76ZM857.96 2273.4C851.819 2257.71 848.134 2240.97 847.247 2223.78C873.545 2222.49 899.242 2215.33 922.264 2202.82C945.286 2215.33 970.982 2222.49 997.28 2223.78C996.394 2240.97 992.708 2257.7 986.566 2273.4L955.85 2242.73L922.264 2276.28L888.678 2242.73L857.96 2273.4ZM865.379 2289.62L888.678 2266.36L922.264 2299.91L955.85 2266.36L979.148 2289.62C966.121 2314.37 946.637 2335.66 922.264 2350.78C897.89 2335.65 878.406 2314.37 865.379 2289.62Z" fill="#6150F4"/>
<path fill-rule="evenodd" clip-rule="evenodd" d="M918.074 2592.4L922.264 2594.83V2594.81L926.454 2592.4C980.565 2561.1 1014.2 2502.83 1014.2 2440.32V2431.89H1005.84C977.891 2431.89 950.456 2424.54 926.454 2410.63L922.264 2408.2L918.074 2410.63C894.071 2424.54 866.636 2431.89 838.689 2431.89L830.332 2431.96V2440.32C830.332 2502.81 863.962 2561.08 918.074 2592.4ZM857.96 2498.03C851.819 2482.34 848.134 2465.61 847.247 2448.41C873.545 2447.12 899.242 2439.96 922.264 2427.46C945.286 2439.96 970.982 2447.12 997.28 2448.41C996.394 2465.6 992.708 2482.34 986.566 2498.03L955.85 2467.36L922.264 2500.91L888.678 2467.36L857.96 2498.03ZM865.379 2514.26L888.678 2490.99L922.264 2524.54L955.85 2490.99L979.148 2514.26C966.121 2539.01 946.637 2560.3 922.264 2575.41C897.89 2560.28 878.406 2539 865.379 2514.26Z" fill="#6150F4"/>
<path fill-rule="evenodd" clip-rule="evenodd" d="M918.074 2817.03L922.264 2819.46V2819.44L926.454 2817.03C980.565 2785.73 1014.2 2727.46 1014.2 2664.96V2656.53H1005.84C977.891 2656.53 950.456 2649.17 926.454 2635.26L922.264 2632.83L918.074 2635.26C894.071 2649.17 866.636 2656.53 838.689 2656.53L830.332 2656.6V2664.96C830.332 2727.44 863.962 2785.71 918.074 2817.03ZM857.96 2722.67C851.819 2706.98 848.134 2690.24 847.247 2673.05C873.545 2671.75 899.242 2664.6 922.264 2652.09C945.286 2664.6 970.982 2671.75 997.28 2673.05C996.394 2690.23 992.708 2706.97 986.566 2722.67L955.85 2692L922.264 2725.55L888.678 2692L857.96 2722.67ZM865.379 2738.89L888.678 2715.63L922.264 2749.18L955.85 2715.63L979.148 2738.89C966.121 2763.64 946.637 2784.93 922.264 2800.05C897.89 2784.92 878.406 2763.63 865.379 2738.89Z" fill="#6150F4"/>
<path fill-rule="evenodd" clip-rule="evenodd" d="M918.074 3041.67L922.264 3044.1V3044.07L926.454 3041.67C980.565 3010.37 1014.2 2952.1 1014.2 2889.59V2881.16H1005.84C977.891 2881.16 950.456 2873.81 926.454 2859.9L922.264 2857.47L918.074 2859.9C894.071 2873.81 866.636 2881.16 838.689 2881.16L830.332 2881.23V2889.59C830.332 2952.07 863.962 3010.35 918.074 3041.67ZM857.96 2947.3C851.819 2931.61 848.134 2914.87 847.247 2897.68C873.545 2896.39 899.242 2889.23 922.264 2876.73C945.286 2889.23 970.982 2896.39 997.28 2897.68C996.394 2914.87 992.708 2931.61 986.566 2947.3L955.85 2916.63L922.264 2950.18L888.678 2916.63L857.96 2947.3ZM865.379 2963.53L888.678 2940.26L922.264 2973.81L955.85 2940.26L979.148 2963.53C966.121 2988.27 946.637 3009.57 922.264 3024.68C897.89 3009.55 878.406 2988.27 865.379 2963.53Z" fill="#6150F4"/>
<path fill-rule="evenodd" clip-rule="evenodd" d="M463.548 121.423L467.738 123.853V123.831L471.928 121.423C526.04 90.125 559.67 31.8534 559.67 -30.6537V-39.0801H551.313C523.365 -39.0801 495.93 -46.4365 471.928 -60.3468L467.738 -62.7767L463.548 -60.3468C439.545 -46.4365 412.111 -39.0801 384.163 -39.0801L375.806 -39.0133V-30.6537C375.806 31.8311 409.436 90.1027 463.548 121.423ZM403.434 27.06C397.293 11.3669 393.608 -5.36945 392.721 -22.5617C419.019 -23.8546 444.716 -31.0104 467.738 -43.5163C490.76 -31.0104 516.456 -23.8546 542.755 -22.5617C541.868 -5.37549 538.182 11.3622 532.04 27.0587L501.324 -3.6132L467.738 29.9365L434.152 -3.6132L403.434 27.06ZM410.853 43.284L434.152 20.0165L467.738 53.5661L501.324 20.0165L524.622 43.2835C511.595 68.0307 492.111 89.3223 467.738 104.437C443.364 89.3098 423.88 68.0257 410.853 43.284Z" fill="#6150F4"/>
<path fill-rule="evenodd" clip-rule="evenodd" d="M1372.6 121.423L1376.79 123.853V123.831L1380.98 121.423C1435.09 90.125 1468.72 31.8534 1468.72 -30.6537V-39.0801H1460.36C1432.42 -39.0801 1404.98 -46.4365 1380.98 -60.3468L1376.79 -62.7767L1372.6 -60.3468C1348.6 -46.4365 1321.16 -39.0801 1293.21 -39.0801L1284.86 -39.0133V-30.6537C1284.86 31.8311 1318.49 90.1027 1372.6 121.423ZM1312.49 27.06C1306.34 11.3669 1302.66 -5.36945 1301.77 -22.5617C1328.07 -23.8546 1353.77 -31.0104 1376.79 -43.5163C1399.81 -31.0104 1425.51 -23.8546 1451.81 -22.5617C1450.92 -5.37549 1447.23 11.3622 1441.09 27.0587L1410.37 -3.6132L1376.79 29.9365L1343.2 -3.6132L1312.49 27.06ZM1319.9 43.284L1343.2 20.0165L1376.79 53.5661L1410.37 20.0165L1433.67 43.2835C1420.65 68.0307 1401.16 89.3223 1376.79 104.437C1352.42 89.3098 1332.93 68.0257 1319.9 43.284Z" fill="#6150F4"/>
<path fill-rule="evenodd" clip-rule="evenodd" d="M463.548 346.06L467.738 348.49V348.467L471.928 346.06C526.04 314.762 559.67 256.49 559.67 193.983V185.557H551.313C523.365 185.557 495.93 178.2 471.928 164.29L467.738 161.86L463.548 164.29C439.545 178.2 412.111 185.557 384.163 185.557L375.806 185.623V193.983C375.806 256.468 409.436 314.739 463.548 346.06ZM403.434 251.697C397.293 236.004 393.608 219.267 392.721 202.075C419.019 200.782 444.716 193.626 467.738 181.12C490.76 193.626 516.456 200.782 542.755 202.075C541.868 219.261 538.182 235.999 532.04 251.695L501.324 221.023L467.738 254.573L434.152 221.023L403.434 251.697ZM410.853 267.921L434.152 244.653L467.738 278.203L501.324 244.653L524.622 267.92C511.595 292.667 492.111 313.959 467.738 329.073C443.364 313.946 423.88 292.662 410.853 267.921Z" fill="#6150F4"/>
<path fill-rule="evenodd" clip-rule="evenodd" d="M1372.6 346.06L1376.79 348.49V348.467L1380.98 346.06C1435.09 314.762 1468.72 256.49 1468.72 193.983V185.557H1460.36C1432.42 185.557 1404.98 178.2 1380.98 164.29L1376.79 161.86L1372.6 164.29C1348.6 178.2 1321.16 185.557 1293.21 185.557L1284.86 185.623V193.983C1284.86 256.468 1318.49 314.739 1372.6 346.06ZM1312.49 251.697C1306.34 236.004 1302.66 219.267 1301.77 202.075C1328.07 200.782 1353.77 193.626 1376.79 181.12C1399.81 193.626 1425.51 200.782 1451.81 202.075C1450.92 219.261 1447.23 235.999 1441.09 251.695L1410.37 221.023L1376.79 254.573L1343.2 221.023L1312.49 251.697ZM1319.9 267.921L1343.2 244.653L1376.79 278.203L1410.37 244.653L1433.67 267.92C1420.65 292.667 1401.16 313.959 1376.79 329.073C1352.42 313.946 1332.93 292.662 1319.9 267.921Z" fill="#6150F4"/>
<path fill-rule="evenodd" clip-rule="evenodd" d="M463.548 570.693L467.738 573.123V573.101L471.928 570.693C526.04 539.395 559.67 481.124 559.67 418.616V410.19H551.313C523.365 410.19 495.93 402.834 471.928 388.923L467.738 386.494L463.548 388.923C439.545 402.834 412.111 410.19 384.163 410.19L375.806 410.257V418.616C375.806 481.101 409.436 539.373 463.548 570.693ZM403.434 476.33C397.293 460.637 393.608 443.901 392.721 426.709C419.019 425.416 444.716 418.26 467.738 405.754C490.76 418.26 516.456 425.416 542.755 426.709C541.868 443.895 538.182 460.632 532.04 476.329L501.324 445.657L467.738 479.207L434.152 445.657L403.434 476.33ZM410.853 492.554L434.152 469.287L467.738 502.836L501.324 469.287L524.622 492.554C511.595 517.301 492.111 538.593 467.738 553.707C443.364 538.58 423.88 517.296 410.853 492.554Z" fill="#6150F4"/>
<path fill-rule="evenodd" clip-rule="evenodd" d="M1372.6 570.693L1376.79 573.123V573.101L1380.98 570.693C1435.09 539.395 1468.72 481.124 1468.72 418.616V410.19H1460.36C1432.42 410.19 1404.98 402.834 1380.98 388.923L1376.79 386.494L1372.6 388.923C1348.6 402.834 1321.16 410.19 1293.21 410.19L1284.86 410.257V418.616C1284.86 481.101 1318.49 539.373 1372.6 570.693ZM1312.49 476.33C1306.34 460.637 1302.66 443.901 1301.77 426.709C1328.07 425.416 1353.77 418.26 1376.79 405.754C1399.81 418.26 1425.51 425.416 1451.81 426.709C1450.92 443.895 1447.23 460.632 1441.09 476.329L1410.37 445.657L1376.79 479.207L1343.2 445.657L1312.49 476.33ZM1319.9 492.554L1343.2 469.287L1376.79 502.836L1410.37 469.287L1433.67 492.554C1420.65 517.301 1401.16 538.593 1376.79 553.707C1352.42 538.58 1332.93 517.296 1319.9 492.554Z" fill="#6150F4"/>
<path fill-rule="evenodd" clip-rule="evenodd" d="M463.548 795.327L467.738 797.757V797.734L471.928 795.327C526.04 764.029 559.67 705.757 559.67 643.25V634.824H551.313C523.365 634.824 495.93 627.467 471.928 613.557L467.738 611.127L463.548 613.557C439.545 627.467 412.111 634.824 384.163 634.824L375.806 634.89V643.25C375.806 705.735 409.436 764.006 463.548 795.327ZM403.434 700.964C397.293 685.271 393.608 668.534 392.721 651.342C419.019 650.049 444.716 642.893 467.738 630.387C490.76 642.893 516.456 650.049 542.755 651.342C541.868 668.528 538.182 685.266 532.04 700.962L501.324 670.29L467.738 703.84L434.152 670.29L403.434 700.964ZM410.853 717.188L434.152 693.92L467.738 727.47L501.324 693.92L524.622 717.187C511.595 741.934 492.111 763.226 467.738 778.34C443.364 763.213 423.88 741.929 410.853 717.188Z" fill="#6150F4"/>
<path fill-rule="evenodd" clip-rule="evenodd" d="M463.548 1693.86L467.738 1696.29V1696.27L471.928 1693.86C526.04 1662.56 559.67 1604.29 559.67 1541.78V1533.36H551.313C523.365 1533.36 495.93 1526 471.928 1512.09L467.738 1509.66L463.548 1512.09C439.545 1526 412.111 1533.36 384.163 1533.36L375.806 1533.42V1541.78C375.806 1604.27 409.436 1662.54 463.548 1693.86ZM403.434 1599.5C397.293 1583.8 393.608 1567.07 392.721 1549.88C419.019 1548.58 444.716 1541.43 467.738 1528.92C490.76 1541.43 516.456 1548.58 542.755 1549.88C541.868 1567.06 538.182 1583.8 532.04 1599.5L501.324 1568.82L467.738 1602.37L434.152 1568.82L403.434 1599.5ZM410.853 1615.72L434.152 1592.45L467.738 1626L501.324 1592.45L524.622 1615.72C511.595 1640.47 492.111 1661.76 467.738 1676.87C443.364 1661.75 423.88 1640.46 410.853 1615.72Z" fill="#6150F4"/>
<path fill-rule="evenodd" clip-rule="evenodd" d="M1372.6 1693.86L1376.79 1696.29V1696.27L1380.98 1693.86C1435.09 1662.56 1468.72 1604.29 1468.72 1541.78V1533.36H1460.36C1432.42 1533.36 1404.98 1526 1380.98 1512.09L1376.79 1509.66L1372.6 1512.09C1348.6 1526 1321.16 1533.36 1293.21 1533.36L1284.86 1533.42V1541.78C1284.86 1604.27 1318.49 1662.54 1372.6 1693.86ZM1312.49 1599.5C1306.34 1583.8 1302.66 1567.07 1301.77 1549.88C1328.07 1548.58 1353.77 1541.43 1376.79 1528.92C1399.81 1541.43 1425.51 1548.58 1451.81 1549.88C1450.92 1567.06 1447.23 1583.8 1441.09 1599.5L1410.37 1568.82L1376.79 1602.37L1343.2 1568.82L1312.49 1599.5ZM1319.9 1615.72L1343.2 1592.45L1376.79 1626L1410.37 1592.45L1433.67 1615.72C1420.65 1640.47 1401.16 1661.76 1376.79 1676.87C1352.42 1661.75 1332.93 1640.46 1319.9 1615.72Z" fill="#6150F4"/>
<path fill-rule="evenodd" clip-rule="evenodd" d="M1372.6 795.327L1376.79 797.757V797.734L1380.98 795.327C1435.09 764.029 1468.72 705.757 1468.72 643.25V634.824H1460.36C1432.42 634.824 1404.98 627.467 1380.98 613.557L1376.79 611.127L1372.6 613.557C1348.6 627.467 1321.16 634.824 1293.21 634.824L1284.86 634.89V643.25C1284.86 705.735 1318.49 764.006 1372.6 795.327ZM1312.49 700.964C1306.34 685.271 1302.66 668.534 1301.77 651.342C1328.07 650.049 1353.77 642.893 1376.79 630.387C1399.81 642.893 1425.51 650.049 1451.81 651.342C1450.92 668.528 1447.23 685.266 1441.09 700.962L1410.37 670.29L1376.79 703.84L1343.2 670.29L1312.49 700.964ZM1319.9 717.188L1343.2 693.92L1376.79 727.47L1410.37 693.92L1433.67 717.187C1420.65 741.934 1401.16 763.226 1376.79 778.34C1352.42 763.213 1332.93 741.929 1319.9 717.188Z" fill="#6150F4"/>
<path fill-rule="evenodd" clip-rule="evenodd" d="M463.548 1019.96L467.738 1022.39V1022.37L471.928 1019.96C526.04 988.662 559.67 930.391 559.67 867.883V859.457H551.313C523.365 859.457 495.93 852.101 471.928 838.19L467.738 835.76L463.548 838.19C439.545 852.101 412.111 859.457 384.163 859.457L375.806 859.524V867.883C375.806 930.368 409.436 988.64 463.548 1019.96ZM403.434 925.597C397.293 909.904 393.608 893.168 392.721 875.975C419.019 874.683 444.716 867.527 467.738 855.021C490.76 867.527 516.456 874.683 542.755 875.975C541.868 893.162 538.182 909.899 532.04 925.596L501.324 894.924L467.738 928.474L434.152 894.924L403.434 925.597ZM410.853 941.821L434.152 918.554L467.738 952.103L501.324 918.554L524.622 941.821C511.595 966.568 492.111 987.859 467.738 1002.97C443.364 987.847 423.88 966.563 410.853 941.821Z" fill="#6150F4"/>
<path fill-rule="evenodd" clip-rule="evenodd" d="M1372.6 1019.96L1376.79 1022.39V1022.37L1380.98 1019.96C1435.09 988.662 1468.72 930.391 1468.72 867.883V859.457H1460.36C1432.42 859.457 1404.98 852.101 1380.98 838.19L1376.79 835.76L1372.6 838.19C1348.6 852.101 1321.16 859.457 1293.21 859.457L1284.86 859.524V867.883C1284.86 930.368 1318.49 988.64 1372.6 1019.96ZM1312.49 925.597C1306.34 909.904 1302.66 893.168 1301.77 875.975C1328.07 874.683 1353.77 867.527 1376.79 855.021C1399.81 867.527 1425.51 874.683 1451.81 875.975C1450.92 893.162 1447.23 909.899 1441.09 925.596L1410.37 894.924L1376.79 928.474L1343.2 894.924L1312.49 925.597ZM1319.9 941.821L1343.2 918.554L1376.79 952.103L1410.37 918.554L1433.67 941.821C1420.65 966.568 1401.16 987.859 1376.79 1002.97C1352.42 987.847 1332.93 966.563 1319.9 941.821Z" fill="#6150F4"/>
<path fill-rule="evenodd" clip-rule="evenodd" d="M463.548 1244.59L467.738 1247.02V1247L471.928 1244.59C526.04 1213.3 559.67 1155.02 559.67 1092.52V1084.09H551.313C523.365 1084.09 495.93 1076.73 471.928 1062.82L467.738 1060.39L463.548 1062.82C439.545 1076.73 412.111 1084.09 384.163 1084.09L375.806 1084.16V1092.52C375.806 1155 409.436 1213.27 463.548 1244.59ZM403.434 1150.23C397.293 1134.54 393.608 1117.8 392.721 1100.61C419.019 1099.32 444.716 1092.16 467.738 1079.65C490.76 1092.16 516.456 1099.32 542.755 1100.61C541.868 1117.8 538.182 1134.53 532.04 1150.23L501.324 1119.56L467.738 1153.11L434.152 1119.56L403.434 1150.23ZM410.853 1166.45L434.152 1143.19L467.738 1176.74L501.324 1143.19L524.622 1166.45C511.595 1191.2 492.111 1212.49 467.738 1227.61C443.364 1212.48 423.88 1191.2 410.853 1166.45Z" fill="#6150F4"/>
<path fill-rule="evenodd" clip-rule="evenodd" d="M1372.6 1244.59L1376.79 1247.02V1247L1380.98 1244.59C1435.09 1213.3 1468.72 1155.02 1468.72 1092.52V1084.09H1460.36C1432.42 1084.09 1404.98 1076.73 1380.98 1062.82L1376.79 1060.39L1372.6 1062.82C1348.6 1076.73 1321.16 1084.09 1293.21 1084.09L1284.86 1084.16V1092.52C1284.86 1155 1318.49 1213.27 1372.6 1244.59ZM1312.49 1150.23C1306.34 1134.54 1302.66 1117.8 1301.77 1100.61C1328.07 1099.32 1353.77 1092.16 1376.79 1079.65C1399.81 1092.16 1425.51 1099.32 1451.81 1100.61C1450.92 1117.8 1447.23 1134.53 1441.09 1150.23L1410.37 1119.56L1376.79 1153.11L1343.2 1119.56L1312.49 1150.23ZM1319.9 1166.45L1343.2 1143.19L1376.79 1176.74L1410.37 1143.19L1433.67 1166.45C1420.65 1191.2 1401.16 1212.49 1376.79 1227.61C1352.42 1212.48 1332.93 1191.2 1319.9 1166.45Z" fill="#6150F4"/>
<path fill-rule="evenodd" clip-rule="evenodd" d="M463.548 1469.23L467.738 1471.66V1471.63L471.928 1469.23C526.04 1437.93 559.67 1379.66 559.67 1317.15V1308.72H551.313C523.365 1308.72 495.93 1301.37 471.928 1287.46L467.738 1285.03L463.548 1287.46C439.545 1301.37 412.111 1308.72 384.163 1308.72L375.806 1308.79V1317.15C375.806 1379.64 409.436 1437.91 463.548 1469.23ZM403.434 1374.86C397.293 1359.17 393.608 1342.43 392.721 1325.24C419.019 1323.95 444.716 1316.79 467.738 1304.29C490.76 1316.79 516.456 1323.95 542.755 1325.24C541.868 1342.43 538.182 1359.17 532.04 1374.86L501.324 1344.19L467.738 1377.74L434.152 1344.19L403.434 1374.86ZM410.853 1391.09L434.152 1367.82L467.738 1401.37L501.324 1367.82L524.622 1391.09C511.595 1415.83 492.111 1437.13 467.738 1452.24C443.364 1437.11 423.88 1415.83 410.853 1391.09Z" fill="#6150F4"/>
<path fill-rule="evenodd" clip-rule="evenodd" d="M1372.6 1469.23L1376.79 1471.66V1471.63L1380.98 1469.23C1435.09 1437.93 1468.72 1379.66 1468.72 1317.15V1308.72H1460.36C1432.42 1308.72 1404.98 1301.37 1380.98 1287.46L1376.79 1285.03L1372.6 1287.46C1348.6 1301.37 1321.16 1308.72 1293.21 1308.72L1284.86 1308.79V1317.15C1284.86 1379.64 1318.49 1437.91 1372.6 1469.23ZM1312.49 1374.86C1306.34 1359.17 1302.66 1342.43 1301.77 1325.24C1328.07 1323.95 1353.77 1316.79 1376.79 1304.29C1399.81 1316.79 1425.51 1323.95 1451.81 1325.24C1450.92 1342.43 1447.23 1359.17 1441.09 1374.86L1410.37 1344.19L1376.79 1377.74L1343.2 1344.19L1312.49 1374.86ZM1319.9 1391.09L1343.2 1367.82L1376.79 1401.37L1410.37 1367.82L1433.67 1391.09C1420.65 1415.83 1401.16 1437.13 1376.79 1452.24C1352.42 1437.11 1332.93 1415.83 1319.9 1391.09Z" fill="#6150F4"/>
<path fill-rule="evenodd" clip-rule="evenodd" d="M463.548 1918.49L467.738 1920.92V1920.9L471.928 1918.49C526.04 1887.2 559.67 1828.93 559.67 1766.42V1757.99H551.313C523.365 1757.99 495.93 1750.64 471.928 1736.73L467.738 1734.3L463.548 1736.73C439.545 1750.64 412.111 1757.99 384.163 1757.99L375.806 1758.06V1766.42C375.806 1828.9 409.436 1887.17 463.548 1918.49ZM403.434 1824.13C397.293 1808.44 393.608 1791.7 392.721 1774.51C419.019 1773.22 444.716 1766.06 467.738 1753.56C490.76 1766.06 516.456 1773.22 542.755 1774.51C541.868 1791.7 538.182 1808.43 532.04 1824.13L501.324 1793.46L467.738 1827.01L434.152 1793.46L403.434 1824.13ZM410.853 1840.36L434.152 1817.09L467.738 1850.64L501.324 1817.09L524.622 1840.36C511.595 1865.1 492.111 1886.39 467.738 1901.51C443.364 1886.38 423.88 1865.1 410.853 1840.36Z" fill="#6150F4"/>
<path fill-rule="evenodd" clip-rule="evenodd" d="M463.548 2143.13L467.738 2145.56V2145.54L471.928 2143.13C526.04 2111.83 559.67 2053.56 559.67 1991.05V1982.63H551.313C523.365 1982.63 495.93 1975.27 471.928 1961.36L467.738 1958.93L463.548 1961.36C439.545 1975.27 412.111 1982.63 384.163 1982.63L375.806 1982.69V1991.05C375.806 2053.54 409.436 2111.81 463.548 2143.13ZM403.434 2048.77C397.293 2033.07 393.608 2016.34 392.721 1999.14C419.019 1997.85 444.716 1990.7 467.738 1978.19C490.76 1990.7 516.456 1997.85 542.755 1999.14C541.868 2016.33 538.182 2033.07 532.04 2048.77L501.324 2018.09L467.738 2051.64L434.152 2018.09L403.434 2048.77ZM410.853 2064.99L434.152 2041.72L467.738 2075.27L501.324 2041.72L524.622 2064.99C511.595 2089.74 492.111 2111.03 467.738 2126.14C443.364 2111.02 423.88 2089.73 410.853 2064.99Z" fill="#6150F4"/>
<path fill-rule="evenodd" clip-rule="evenodd" d="M463.548 2367.76L467.738 2370.19V2370.17L471.928 2367.76C526.04 2336.47 559.67 2278.19 559.67 2215.69V2207.26H551.313C523.365 2207.26 495.93 2199.9 471.928 2185.99L467.738 2183.56L463.548 2185.99C439.545 2199.9 412.111 2207.26 384.163 2207.26L375.806 2207.33V2215.69C375.806 2278.17 409.436 2336.44 463.548 2367.76ZM403.434 2273.4C397.293 2257.71 393.608 2240.97 392.721 2223.78C419.019 2222.49 444.716 2215.33 467.738 2202.82C490.76 2215.33 516.456 2222.49 542.755 2223.78C541.868 2240.97 538.182 2257.7 532.04 2273.4L501.324 2242.73L467.738 2276.28L434.152 2242.73L403.434 2273.4ZM410.853 2289.62L434.152 2266.36L467.738 2299.91L501.324 2266.36L524.622 2289.62C511.595 2314.37 492.111 2335.66 467.738 2350.78C443.364 2335.65 423.88 2314.37 410.853 2289.62Z" fill="#6150F4"/>
<path fill-rule="evenodd" clip-rule="evenodd" d="M463.548 2592.4L467.738 2594.83V2594.81L471.928 2592.4C526.04 2561.1 559.67 2502.83 559.67 2440.32V2431.89H551.313C523.365 2431.89 495.93 2424.54 471.928 2410.63L467.738 2408.2L463.548 2410.63C439.545 2424.54 412.111 2431.89 384.163 2431.89L375.806 2431.96V2440.32C375.806 2502.81 409.436 2561.08 463.548 2592.4ZM403.434 2498.03C397.293 2482.34 393.608 2465.61 392.721 2448.41C419.019 2447.12 444.716 2439.96 467.738 2427.46C490.76 2439.96 516.456 2447.12 542.755 2448.41C541.868 2465.6 538.182 2482.34 532.04 2498.03L501.324 2467.36L467.738 2500.91L434.152 2467.36L403.434 2498.03ZM410.853 2514.26L434.152 2490.99L467.738 2524.54L501.324 2490.99L524.622 2514.26C511.595 2539.01 492.111 2560.3 467.738 2575.41C443.364 2560.28 423.88 2539 410.853 2514.26Z" fill="#6150F4"/>
<path fill-rule="evenodd" clip-rule="evenodd" d="M463.548 2817.03L467.738 2819.46V2819.44L471.928 2817.03C526.04 2785.73 559.67 2727.46 559.67 2664.96V2656.53H551.313C523.365 2656.53 495.93 2649.17 471.928 2635.26L467.738 2632.83L463.548 2635.26C439.545 2649.17 412.111 2656.53 384.163 2656.53L375.806 2656.6V2664.96C375.806 2727.44 409.436 2785.71 463.548 2817.03ZM403.434 2722.67C397.293 2706.98 393.608 2690.24 392.721 2673.05C419.019 2671.75 444.716 2664.6 467.738 2652.09C490.76 2664.6 516.456 2671.75 542.755 2673.05C541.868 2690.23 538.182 2706.97 532.04 2722.67L501.324 2692L467.738 2725.55L434.152 2692L403.434 2722.67ZM410.853 2738.89L434.152 2715.63L467.738 2749.18L501.324 2715.63L524.622 2738.89C511.595 2763.64 492.111 2784.93 467.738 2800.05C443.364 2784.92 423.88 2763.63 410.853 2738.89Z" fill="#6150F4"/>
<path fill-rule="evenodd" clip-rule="evenodd" d="M463.548 3041.67L467.738 3044.1V3044.07L471.928 3041.67C526.04 3010.37 559.67 2952.1 559.67 2889.59V2881.16H551.313C523.365 2881.16 495.93 2873.81 471.928 2859.9L467.738 2857.47L463.548 2859.9C439.545 2873.81 412.111 2881.16 384.163 2881.16L375.806 2881.23V2889.59C375.806 2952.07 409.436 3010.35 463.548 3041.67ZM403.434 2947.3C397.293 2931.61 393.608 2914.87 392.721 2897.68C419.019 2896.39 444.716 2889.23 467.738 2876.73C490.76 2889.23 516.456 2896.39 542.755 2897.68C541.868 2914.87 538.182 2931.61 532.04 2947.3L501.324 2916.63L467.738 2950.18L434.152 2916.63L403.434 2947.3ZM410.853 2963.53L434.152 2940.26L467.738 2973.81L501.324 2940.26L524.622 2963.53C511.595 2988.27 492.111 3009.57 467.738 3024.68C443.364 3009.55 423.88 2988.27 410.853 2963.53Z" fill="#6150F4"/>
<path fill-rule="evenodd" clip-rule="evenodd" d="M1372.6 1918.49L1376.79 1920.92V1920.9L1380.98 1918.49C1435.09 1887.2 1468.72 1828.93 1468.72 1766.42V1757.99H1460.36C1432.42 1757.99 1404.98 1750.64 1380.98 1736.73L1376.79 1734.3L1372.6 1736.73C1348.6 1750.64 1321.16 1757.99 1293.21 1757.99L1284.86 1758.06V1766.42C1284.86 1828.9 1318.49 1887.17 1372.6 1918.49ZM1312.49 1824.13C1306.34 1808.44 1302.66 1791.7 1301.77 1774.51C1328.07 1773.22 1353.77 1766.06 1376.79 1753.56C1399.81 1766.06 1425.51 1773.22 1451.81 1774.51C1450.92 1791.7 1447.23 1808.43 1441.09 1824.13L1410.37 1793.46L1376.79 1827.01L1343.2 1793.46L1312.49 1824.13ZM1319.9 1840.36L1343.2 1817.09L1376.79 1850.64L1410.37 1817.09L1433.67 1840.36C1420.65 1865.1 1401.16 1886.39 1376.79 1901.51C1352.42 1886.38 1332.93 1865.1 1319.9 1840.36Z" fill="#6150F4"/>
<path fill-rule="evenodd" clip-rule="evenodd" d="M1372.6 2143.13L1376.79 2145.56V2145.54L1380.98 2143.13C1435.09 2111.83 1468.72 2053.56 1468.72 1991.05V1982.63H1460.36C1432.42 1982.63 1404.98 1975.27 1380.98 1961.36L1376.79 1958.93L1372.6 1961.36C1348.6 1975.27 1321.16 1982.63 1293.21 1982.63L1284.86 1982.69V1991.05C1284.86 2053.54 1318.49 2111.81 1372.6 2143.13ZM1312.49 2048.77C1306.34 2033.07 1302.66 2016.34 1301.77 1999.14C1328.07 1997.85 1353.77 1990.7 1376.79 1978.19C1399.81 1990.7 1425.51 1997.85 1451.81 1999.14C1450.92 2016.33 1447.23 2033.07 1441.09 2048.77L1410.37 2018.09L1376.79 2051.64L1343.2 2018.09L1312.49 2048.77ZM1319.9 2064.99L1343.2 2041.72L1376.79 2075.27L1410.37 2041.72L1433.67 2064.99C1420.65 2089.74 1401.16 2111.03 1376.79 2126.14C1352.42 2111.02 1332.93 2089.73 1319.9 2064.99Z" fill="#6150F4"/>
<path fill-rule="evenodd" clip-rule="evenodd" d="M1372.6 2367.76L1376.79 2370.19V2370.17L1380.98 2367.76C1435.09 2336.47 1468.72 2278.19 1468.72 2215.69V2207.26H1460.36C1432.42 2207.26 1404.98 2199.9 1380.98 2185.99L1376.79 2183.56L1372.6 2185.99C1348.6 2199.9 1321.16 2207.26 1293.21 2207.26L1284.86 2207.33V2215.69C1284.86 2278.17 1318.49 2336.44 1372.6 2367.76ZM1312.49 2273.4C1306.34 2257.71 1302.66 2240.97 1301.77 2223.78C1328.07 2222.49 1353.77 2215.33 1376.79 2202.82C1399.81 2215.33 1425.51 2222.49 1451.81 2223.78C1450.92 2240.97 1447.23 2257.7 1441.09 2273.4L1410.37 2242.73L1376.79 2276.28L1343.2 2242.73L1312.49 2273.4ZM1319.9 2289.62L1343.2 2266.36L1376.79 2299.91L1410.37 2266.36L1433.67 2289.62C1420.65 2314.37 1401.16 2335.66 1376.79 2350.78C1352.42 2335.65 1332.93 2314.37 1319.9 2289.62Z" fill="#6150F4"/>
<path fill-rule="evenodd" clip-rule="evenodd" d="M1372.6 2592.4L1376.79 2594.83V2594.81L1380.98 2592.4C1435.09 2561.1 1468.72 2502.83 1468.72 2440.32V2431.89H1460.36C1432.42 2431.89 1404.98 2424.54 1380.98 2410.63L1376.79 2408.2L1372.6 2410.63C1348.6 2424.54 1321.16 2431.89 1293.21 2431.89L1284.86 2431.96V2440.32C1284.86 2502.81 1318.49 2561.08 1372.6 2592.4ZM1312.49 2498.03C1306.34 2482.34 1302.66 2465.61 1301.77 2448.41C1328.07 2447.12 1353.77 2439.96 1376.79 2427.46C1399.81 2439.96 1425.51 2447.12 1451.81 2448.41C1450.92 2465.6 1447.23 2482.34 1441.09 2498.03L1410.37 2467.36L1376.79 2500.91L1343.2 2467.36L1312.49 2498.03ZM1319.9 2514.26L1343.2 2490.99L1376.79 2524.54L1410.37 2490.99L1433.67 2514.26C1420.65 2539.01 1401.16 2560.3 1376.79 2575.41C1352.42 2560.28 1332.93 2539 1319.9 2514.26Z" fill="#6150F4"/>
<path fill-rule="evenodd" clip-rule="evenodd" d="M1372.6 2817.03L1376.79 2819.46V2819.44L1380.98 2817.03C1435.09 2785.73 1468.72 2727.46 1468.72 2664.96V2656.53H1460.36C1432.42 2656.53 1404.98 2649.17 1380.98 2635.26L1376.79 2632.83L1372.6 2635.26C1348.6 2649.17 1321.16 2656.53 1293.21 2656.53L1284.86 2656.6V2664.96C1284.86 2727.44 1318.49 2785.71 1372.6 2817.03ZM1312.49 2722.67C1306.34 2706.98 1302.66 2690.24 1301.77 2673.05C1328.07 2671.75 1353.77 2664.6 1376.79 2652.09C1399.81 2664.6 1425.51 2671.75 1451.81 2673.05C1450.92 2690.23 1447.23 2706.97 1441.09 2722.67L1410.37 2692L1376.79 2725.55L1343.2 2692L1312.49 2722.67ZM1319.9 2738.89L1343.2 2715.63L1376.79 2749.18L1410.37 2715.63L1433.67 2738.89C1420.65 2763.64 1401.16 2784.93 1376.79 2800.05C1352.42 2784.92 1332.93 2763.63 1319.9 2738.89Z" fill="#6150F4"/>
<path fill-rule="evenodd" clip-rule="evenodd" d="M1372.6 3041.67L1376.79 3044.1V3044.07L1380.98 3041.67C1435.09 3010.37 1468.72 2952.1 1468.72 2889.59V2881.16H1460.36C1432.42 2881.16 1404.98 2873.81 1380.98 2859.9L1376.79 2857.47L1372.6 2859.9C1348.6 2873.81 1321.16 2881.16 1293.21 2881.16L1284.86 2881.23V2889.59C1284.86 2952.07 1318.49 3010.35 1372.6 3041.67ZM1312.49 2947.3C1306.34 2931.61 1302.66 2914.87 1301.77 2897.68C1328.07 2896.39 1353.77 2889.23 1376.79 2876.73C1399.81 2889.23 1425.51 2896.39 1451.81 2897.68C1450.92 2914.87 1447.23 2931.61 1441.09 2947.3L1410.37 2916.63L1376.79 2950.18L1343.2 2916.63L1312.49 2947.3ZM1319.9 2963.53L1343.2 2940.26L1376.79 2973.81L1410.37 2940.26L1433.67 2963.53C1420.65 2988.27 1401.16 3009.57 1376.79 3024.68C1352.42 3009.55 1332.93 2988.27 1319.9 2963.53Z" fill="#6150F4"/>
</g>
<defs>
<clipPath id="clip0_2001_4487">
<rect width="1390" height="2880" fill="white"/>
</clipPath>
</defs>
</svg>
